<?xml version="1.0" encoding="utf-8" standalone="no"?>
<!DOCTYPE svg PUBLIC "-//W3C//DTD SVG 1.1//EN"
  "http://www.w3.org/Graphics/SVG/1.1/DTD/svg11.dtd">
<svg height="648pt" version="1.1" viewBox="0 0 864 648" width="864pt" xmlns="http://www.w3.org/2000/svg" xmlns:xlink="http://www.w3.org/1999/xlink">
 <metadata>
  <rdf:RDF xmlns:cc="http://creativecommons.org/ns#" xmlns:dc="http://purl.org/dc/elements/1.1/" xmlns:rdf="http://www.w3.org/1999/02/22-rdf-syntax-ns#">
   <cc:Work>
    <dc:type rdf:resource="http://purl.org/dc/dcmitype/StillImage"/>
    <dc:date>2021-10-10T17:18:52.226424</dc:date>
    <dc:format>image/svg+xml</dc:format>
    <dc:creator>
     <cc:Agent>
      <dc:title>Matplotlib v3.4.2, https://matplotlib.org/</dc:title>
     </cc:Agent>
    </dc:creator>
   </cc:Work>
  </rdf:RDF>
 </metadata>
 <defs>
  <style type="text/css">*{stroke-linecap:butt;stroke-linejoin:round;}</style>
 </defs>
 <g id="figure_1">
  <g id="patch_1">
   <path d="M 0 648 
L 864 648 
L 864 0 
L 0 0 
z
" style="fill:none;"/>
  </g>
  <g id="axes_1">
   <g id="patch_2">
    <path d="M 108 567 
L 777.6 567 
L 777.6 77.76 
L 108 77.76 
z
" style="fill:#ffffff;"/>
   </g>
   <g id="patch_3">
    <path clip-path="url(#p8a812c681b)" d="M 491.498182 144.156857 
L 500.629091 140.662286 
L 500.629091 144.121911 
L 528.021818 144.121911 
L 528.021818 144.191803 
L 500.629091 144.191803 
L 500.629091 147.651429 
z
" style="stroke:#000000;stroke-linejoin:miter;"/>
   </g>
   <g id="matplotlib.axis_1">
    <g id="xtick_1">
     <g id="line2d_1">
      <defs>
       <path d="M 0 0 
L 0 3.5 
" id="mad1c5fbae6" style="stroke:#000000;stroke-width:0.8;"/>
      </defs>
      <g>
       <use style="stroke:#000000;stroke-width:0.8;" x="108" xlink:href="#mad1c5fbae6" y="567"/>
      </g>
     </g>
     <g id="line2d_2">
      <defs>
       <path d="M 0 0 
L 0 -3.5 
" id="m8487abea7b" style="stroke:#000000;stroke-width:0.8;"/>
      </defs>
      <g>
       <use style="stroke:#000000;stroke-width:0.8;" x="108" xlink:href="#m8487abea7b" y="77.76"/>
      </g>
     </g>
    </g>
    <g id="xtick_2">
     <g id="line2d_3">
      <g>
       <use style="stroke:#000000;stroke-width:0.8;" x="229.745455" xlink:href="#mad1c5fbae6" y="567"/>
      </g>
     </g>
     <g id="line2d_4">
      <g>
       <use style="stroke:#000000;stroke-width:0.8;" x="229.745455" xlink:href="#m8487abea7b" y="77.76"/>
      </g>
     </g>
    </g>
    <g id="xtick_3">
     <g id="line2d_5">
      <g>
       <use style="stroke:#000000;stroke-width:0.8;" x="351.490909" xlink:href="#mad1c5fbae6" y="567"/>
      </g>
     </g>
     <g id="line2d_6">
      <g>
       <use style="stroke:#000000;stroke-width:0.8;" x="351.490909" xlink:href="#m8487abea7b" y="77.76"/>
      </g>
     </g>
    </g>
    <g id="xtick_4">
     <g id="line2d_7">
      <g>
       <use style="stroke:#000000;stroke-width:0.8;" x="473.236364" xlink:href="#mad1c5fbae6" y="567"/>
      </g>
     </g>
     <g id="line2d_8">
      <g>
       <use style="stroke:#000000;stroke-width:0.8;" x="473.236364" xlink:href="#m8487abea7b" y="77.76"/>
      </g>
     </g>
    </g>
    <g id="xtick_5">
     <g id="line2d_9">
      <g>
       <use style="stroke:#000000;stroke-width:0.8;" x="594.981818" xlink:href="#mad1c5fbae6" y="567"/>
      </g>
     </g>
     <g id="line2d_10">
      <g>
       <use style="stroke:#000000;stroke-width:0.8;" x="594.981818" xlink:href="#m8487abea7b" y="77.76"/>
      </g>
     </g>
    </g>
    <g id="xtick_6">
     <g id="line2d_11">
      <g>
       <use style="stroke:#000000;stroke-width:0.8;" x="716.727273" xlink:href="#mad1c5fbae6" y="567"/>
      </g>
     </g>
     <g id="line2d_12">
      <g>
       <use style="stroke:#000000;stroke-width:0.8;" x="716.727273" xlink:href="#m8487abea7b" y="77.76"/>
      </g>
     </g>
    </g>
   </g>
   <g id="matplotlib.axis_2">
    <g id="ytick_1">
     <g id="line2d_13">
      <defs>
       <path d="M 0 0 
L -3.5 0 
" id="md39b2faae7" style="stroke:#000000;stroke-width:0.8;"/>
      </defs>
      <g>
       <use style="stroke:#000000;stroke-width:0.8;" x="108" xlink:href="#md39b2faae7" y="567"/>
      </g>
     </g>
     <g id="line2d_14">
      <defs>
       <path d="M 0 0 
L 3.5 0 
" id="md64abf2162" style="stroke:#000000;stroke-width:0.8;"/>
      </defs>
      <g>
       <use style="stroke:#000000;stroke-width:0.8;" x="777.6" xlink:href="#md64abf2162" y="567"/>
      </g>
     </g>
    </g>
    <g id="ytick_2">
     <g id="line2d_15">
      <g>
       <use style="stroke:#000000;stroke-width:0.8;" x="108" xlink:href="#md39b2faae7" y="497.108571"/>
      </g>
     </g>
     <g id="line2d_16">
      <g>
       <use style="stroke:#000000;stroke-width:0.8;" x="777.6" xlink:href="#md64abf2162" y="497.108571"/>
      </g>
     </g>
    </g>
    <g id="ytick_3">
     <g id="line2d_17">
      <g>
       <use style="stroke:#000000;stroke-width:0.8;" x="108" xlink:href="#md39b2faae7" y="427.217143"/>
      </g>
     </g>
     <g id="line2d_18">
      <g>
       <use style="stroke:#000000;stroke-width:0.8;" x="777.6" xlink:href="#md64abf2162" y="427.217143"/>
      </g>
     </g>
    </g>
    <g id="ytick_4">
     <g id="line2d_19">
      <g>
       <use style="stroke:#000000;stroke-width:0.8;" x="108" xlink:href="#md39b2faae7" y="357.325714"/>
      </g>
     </g>
     <g id="line2d_20">
      <g>
       <use style="stroke:#000000;stroke-width:0.8;" x="777.6" xlink:href="#md64abf2162" y="357.325714"/>
      </g>
     </g>
    </g>
    <g id="ytick_5">
     <g id="line2d_21">
      <g>
       <use style="stroke:#000000;stroke-width:0.8;" x="108" xlink:href="#md39b2faae7" y="287.434286"/>
      </g>
     </g>
     <g id="line2d_22">
      <g>
       <use style="stroke:#000000;stroke-width:0.8;" x="777.6" xlink:href="#md64abf2162" y="287.434286"/>
      </g>
     </g>
    </g>
    <g id="ytick_6">
     <g id="line2d_23">
      <g>
       <use style="stroke:#000000;stroke-width:0.8;" x="108" xlink:href="#md39b2faae7" y="217.542857"/>
      </g>
     </g>
     <g id="line2d_24">
      <g>
       <use style="stroke:#000000;stroke-width:0.8;" x="777.6" xlink:href="#md64abf2162" y="217.542857"/>
      </g>
     </g>
    </g>
    <g id="ytick_7">
     <g id="line2d_25">
      <g>
       <use style="stroke:#000000;stroke-width:0.8;" x="108" xlink:href="#md39b2faae7" y="147.651429"/>
      </g>
     </g>
     <g id="line2d_26">
      <g>
       <use style="stroke:#000000;stroke-width:0.8;" x="777.6" xlink:href="#md64abf2162" y="147.651429"/>
      </g>
     </g>
    </g>
    <g id="ytick_8">
     <g id="line2d_27">
      <g>
       <use style="stroke:#000000;stroke-width:0.8;" x="108" xlink:href="#md39b2faae7" y="77.76"/>
      </g>
     </g>
     <g id="line2d_28">
      <g>
       <use style="stroke:#000000;stroke-width:0.8;" x="777.6" xlink:href="#md64abf2162" y="77.76"/>
      </g>
     </g>
    </g>
   </g>
   <g id="line2d_29">
    <path clip-path="url(#p8a812c681b)" d="M 108 567 
L 128.839312 544.850449 
L 142.153317 531.071263 
L 151.415233 521.940605 
L 158.361671 515.593454 
L 163.571499 511.287017 
L 168.202457 507.909489 
L 172.254545 505.332842 
L 176.306634 503.101857 
L 179.779853 501.431034 
L 183.253071 499.949731 
L 187.30516 498.413659 
L 191.357248 497.043103 
L 197.145946 495.321193 
L 203.513514 493.638692 
L 212.77543 491.512183 
L 223.773956 489.321898 
L 235.930221 487.199547 
L 249.823096 485.05303 
L 267.189189 482.665696 
L 288.028501 480.09381 
L 313.498771 477.24453 
L 345.336609 473.993032 
L 385.278624 470.245709 
L 436.798034 465.782788 
L 503.946929 460.395072 
L 544.467813 457.314097 
L 591.935135 453.82666 
L 646.927764 449.920692 
L 686.290909 447.194466 
L 686.290909 447.194466 
" style="fill:none;stroke:#000000;stroke-linecap:square;stroke-width:1.5;"/>
   </g>
   <g id="line2d_30">
    <path clip-path="url(#p8a812c681b)" d="M 108 567 
L 132.312531 541.020703 
L 146.784275 525.888611 
L 157.203931 515.365159 
L 165.886978 507.032702 
L 172.833415 500.78523 
L 179.200983 495.464709 
L 184.989681 490.967742 
L 190.778378 486.753974 
L 196.567076 482.760866 
L 202.934644 478.553513 
L 216.248649 470.146321 
L 231.878133 460.590115 
L 255.032924 446.704783 
L 291.50172 425.080603 
L 361.544963 383.816005 
L 514.945455 293.768901 
L 686.290909 193.330035 
L 686.290909 193.330035 
" style="fill:none;stroke:#000000;stroke-linecap:square;stroke-width:1.5;"/>
   </g>
   <g id="line2d_31">
    <path clip-path="url(#p8a812c681b)" d="M 108 567 
L 129.418182 544.241767 
L 142.732187 530.472778 
L 151.415233 521.888194 
L 158.361671 515.479141 
L 164.150369 510.640503 
L 168.781327 507.193667 
L 173.412285 504.173422 
L 177.464373 501.852195 
L 180.937592 500.074468 
L 184.989681 498.20221 
L 189.041769 496.503989 
L 193.672727 494.724962 
L 202.355774 491.739764 
L 212.19656 488.708725 
L 223.195086 485.601081 
L 236.509091 482.095396 
L 251.559705 478.35434 
L 270.662408 473.81846 
L 294.396069 468.378897 
L 324.497297 461.655874 
L 387.015233 447.99625 
L 483.107617 427.314452 
L 633.613759 395.186406 
L 686.290909 383.977736 
L 686.290909 383.977736 
" style="fill:none;stroke:#000000;stroke-linecap:square;stroke-width:1.5;"/>
   </g>
   <g id="line2d_32">
    <path clip-path="url(#p8a812c681b)" d="M 108 567 
L 128.839312 544.849943 
L 142.732187 530.488744 
L 151.415233 521.932631 
L 158.361671 515.575903 
L 163.571499 511.255462 
L 168.202457 507.859085 
L 172.254545 505.260191 
L 176.306634 503.002056 
L 179.779853 501.303076 
L 183.831941 499.551854 
L 187.884029 497.999758 
L 191.936118 496.605083 
L 200.040295 494.175156 
L 208.723342 491.927362 
L 219.142998 489.554952 
L 230.720393 487.198209 
L 244.613268 484.63797 
L 261.400491 481.802509 
L 282.239803 478.525959 
L 308.867813 474.570145 
L 341.863391 469.874887 
L 384.699754 463.969583 
L 440.850123 456.407585 
L 515.524324 446.520036 
L 617.405405 433.194926 
L 686.290909 424.247855 
L 686.290909 424.247855 
" style="fill:none;stroke:#000000;stroke-linecap:square;stroke-width:1.5;"/>
   </g>
   <g id="line2d_33">
    <path clip-path="url(#p8a812c681b)" d="M 108 567 
L 503.672727 112.705714 
L 503.672727 112.705714 
" style="fill:none;stroke:#000000;stroke-linecap:square;stroke-width:1.5;"/>
   </g>
   <g id="patch_4">
    <path d="M 108 567 
L 108 77.76 
" style="fill:none;stroke:#000000;stroke-linecap:square;stroke-linejoin:miter;stroke-width:0.8;"/>
   </g>
   <g id="patch_5">
    <path d="M 777.6 567 
L 777.6 77.76 
" style="fill:none;stroke:#000000;stroke-linecap:square;stroke-linejoin:miter;stroke-width:0.8;"/>
   </g>
   <g id="patch_6">
    <path d="M 108 567 
L 777.6 567 
" style="fill:none;stroke:#000000;stroke-linecap:square;stroke-linejoin:miter;stroke-width:0.8;"/>
   </g>
   <g id="patch_7">
    <path d="M 108 77.76 
L 777.6 77.76 
" style="fill:none;stroke:#000000;stroke-linecap:square;stroke-linejoin:miter;stroke-width:0.8;"/>
   </g>
   <g id="text_1">
    <!-- $c_{T   }(m) = 45$ degree line -->
    <g transform="translate(534.109091 147.651429)scale(0.22 -0.22)">
     <defs>
      <path d="M 3719 3391 
L 3541 2478 
Q 3316 2628 3097 2706 
Q 2878 2784 2669 2784 
Q 2122 2784 1775 2417 
Q 1428 2050 1428 1478 
Q 1428 1113 1643 911 
Q 1859 709 2253 709 
Q 2516 709 2769 787 
Q 3022 866 3250 1019 
L 3078 103 
Q 2800 6 2519 -42 
Q 2238 -91 1953 -91 
Q 1128 -91 683 279 
Q 238 650 238 1331 
Q 238 1759 402 2162 
Q 566 2566 872 2888 
Q 1213 3241 1653 3412 
Q 2094 3584 2669 3584 
Q 2934 3584 3196 3536 
Q 3459 3488 3719 3391 
z
" id="DejaVuSans-BoldOblique-63" transform="scale(0.015625)"/>
      <path d="M 488 4666 
L 4788 4666 
L 4609 3756 
L 3059 3756 
L 2328 0 
L 1125 0 
L 1856 3756 
L 306 3756 
L 488 4666 
z
" id="DejaVuSans-BoldOblique-54" transform="scale(0.015625)"/>
      <path d="M 2413 -844 
L 1484 -844 
Q 1006 -72 778 623 
Q 550 1319 550 2003 
Q 550 2688 779 3389 
Q 1009 4091 1484 4856 
L 2413 4856 
Q 2013 4116 1813 3408 
Q 1613 2700 1613 2009 
Q 1613 1319 1811 609 
Q 2009 -100 2413 -844 
z
" id="DejaVuSans-Bold-28" transform="scale(0.015625)"/>
      <path d="M 4013 2919 
Q 4272 3241 4601 3412 
Q 4931 3584 5288 3584 
Q 5756 3584 6026 3326 
Q 6297 3069 6297 2619 
Q 6297 2525 6283 2404 
Q 6269 2284 6241 2131 
L 5825 0 
L 4697 0 
L 5050 1825 
L 5059 1872 
Q 5141 2259 5141 2369 
Q 5141 2541 5042 2641 
Q 4944 2741 4775 2741 
Q 4453 2741 4229 2477 
Q 4006 2213 3909 1722 
L 3572 0 
L 2444 0 
L 2803 1825 
Q 2850 2059 2869 2179 
Q 2888 2300 2888 2369 
Q 2888 2544 2791 2642 
Q 2694 2741 2522 2741 
Q 2213 2741 1980 2467 
Q 1747 2194 1656 1722 
L 1319 0 
L 197 0 
L 878 3500 
L 2003 3500 
L 1900 2988 
Q 2163 3284 2459 3434 
Q 2756 3584 3078 3584 
Q 3441 3584 3700 3398 
Q 3959 3213 4013 2919 
z
" id="DejaVuSans-BoldOblique-6d" transform="scale(0.015625)"/>
      <path d="M 513 -844 
Q 913 -100 1113 609 
Q 1313 1319 1313 2009 
Q 1313 2700 1113 3408 
Q 913 4116 513 4856 
L 1441 4856 
Q 1916 4091 2145 3389 
Q 2375 2688 2375 2003 
Q 2375 1319 2147 623 
Q 1919 -72 1441 -844 
L 513 -844 
z
" id="DejaVuSans-Bold-29" transform="scale(0.015625)"/>
      <path d="M 678 3084 
L 4684 3084 
L 4684 2350 
L 678 2350 
L 678 3084 
z
M 678 1663 
L 4684 1663 
L 4684 922 
L 678 922 
L 678 1663 
z
" id="DejaVuSans-Bold-3d" transform="scale(0.015625)"/>
      <path d="M 2356 3675 
L 1038 1722 
L 2356 1722 
L 2356 3675 
z
M 2156 4666 
L 3494 4666 
L 3494 1722 
L 4159 1722 
L 4159 850 
L 3494 850 
L 3494 0 
L 2356 0 
L 2356 850 
L 288 850 
L 288 1881 
L 2156 4666 
z
" id="DejaVuSans-Bold-34" transform="scale(0.015625)"/>
      <path d="M 678 4666 
L 3669 4666 
L 3669 3781 
L 1638 3781 
L 1638 3059 
Q 1775 3097 1914 3117 
Q 2053 3138 2203 3138 
Q 3056 3138 3531 2711 
Q 4006 2284 4006 1522 
Q 4006 766 3489 337 
Q 2972 -91 2053 -91 
Q 1656 -91 1267 -14 
Q 878 63 494 219 
L 494 1166 
Q 875 947 1217 837 
Q 1559 728 1863 728 
Q 2300 728 2551 942 
Q 2803 1156 2803 1522 
Q 2803 1891 2551 2103 
Q 2300 2316 1863 2316 
Q 1603 2316 1309 2248 
Q 1016 2181 678 2041 
L 678 4666 
z
" id="DejaVuSans-Bold-35" transform="scale(0.015625)"/>
      <path id="DejaVuSerif-Bold-20" transform="scale(0.015625)"/>
      <path d="M 2747 1497 
L 2747 1825 
Q 2747 2406 2597 2665 
Q 2447 2925 2119 2925 
Q 1775 2925 1636 2651 
Q 1497 2378 1497 1663 
Q 1497 947 1637 672 
Q 1778 397 2119 397 
Q 2447 397 2597 656 
Q 2747 916 2747 1497 
z
M 3853 378 
L 4325 378 
L 4325 0 
L 2747 0 
L 2747 422 
Q 2606 163 2367 36 
Q 2128 -91 1778 -91 
Q 1072 -91 667 378 
Q 263 847 263 1663 
Q 263 2481 667 2947 
Q 1072 3413 1778 3413 
Q 2128 3413 2367 3286 
Q 2606 3159 2747 2900 
L 2747 4488 
L 2272 4488 
L 2272 4863 
L 3853 4863 
L 3853 378 
z
" id="DejaVuSerif-Bold-64" transform="scale(0.015625)"/>
      <path d="M 2566 1875 
Q 2566 2531 2444 2795 
Q 2322 3059 2028 3059 
Q 1744 3059 1620 2800 
Q 1497 2541 1497 1931 
L 1497 1875 
L 2566 1875 
z
M 3781 1503 
L 1497 1503 
L 1497 1478 
Q 1497 834 1690 548 
Q 1884 263 2316 263 
Q 2675 263 2897 453 
Q 3119 644 3181 1006 
L 3700 1006 
Q 3566 441 3166 175 
Q 2766 -91 2047 -91 
Q 1184 -91 723 364 
Q 263 819 263 1663 
Q 263 2488 734 2950 
Q 1206 3413 2047 3413 
Q 2872 3413 3312 2927 
Q 3753 2441 3781 1503 
z
" id="DejaVuSerif-Bold-65" transform="scale(0.015625)"/>
      <path d="M 3853 2944 
L 3853 44 
Q 3853 -656 3354 -1039 
Q 2856 -1422 1947 -1422 
Q 1616 -1422 1275 -1370 
Q 934 -1319 575 -1216 
L 575 -422 
L 928 -422 
Q 975 -750 1192 -909 
Q 1409 -1069 1813 -1069 
Q 2325 -1069 2536 -823 
Q 2747 -578 2747 44 
L 2747 422 
Q 2606 163 2367 36 
Q 2128 -91 1778 -91 
Q 1072 -91 667 378 
Q 263 847 263 1663 
Q 263 2481 667 2947 
Q 1072 3413 1778 3413 
Q 2128 3413 2367 3286 
Q 2606 3159 2747 2900 
L 2747 3322 
L 4325 3322 
L 4325 2944 
L 3853 2944 
z
M 2747 1825 
Q 2747 2406 2597 2665 
Q 2447 2925 2119 2925 
Q 1775 2925 1636 2651 
Q 1497 2378 1497 1663 
Q 1497 947 1637 672 
Q 1778 397 2119 397 
Q 2447 397 2597 656 
Q 2747 916 2747 1497 
L 2747 1825 
z
" id="DejaVuSerif-Bold-67" transform="scale(0.015625)"/>
      <path d="M 3438 3359 
L 3438 2369 
L 3084 2369 
Q 3066 2634 2941 2764 
Q 2816 2894 2578 2894 
Q 2216 2894 2006 2575 
Q 1797 2256 1797 1691 
L 1797 378 
L 2400 378 
L 2400 0 
L 219 0 
L 219 378 
L 691 378 
L 691 2944 
L 184 2944 
L 184 3322 
L 1797 3322 
L 1797 2731 
Q 1959 3078 2226 3245 
Q 2494 3413 2881 3413 
Q 2978 3413 3117 3398 
Q 3256 3384 3438 3359 
z
" id="DejaVuSerif-Bold-72" transform="scale(0.015625)"/>
      <path d="M 1797 378 
L 2272 378 
L 2272 0 
L 219 0 
L 219 378 
L 691 378 
L 691 4488 
L 219 4488 
L 219 4863 
L 1797 4863 
L 1797 378 
z
" id="DejaVuSerif-Bold-6c" transform="scale(0.015625)"/>
      <path d="M 588 4263 
Q 588 4516 763 4689 
Q 938 4863 1191 4863 
Q 1438 4863 1611 4689 
Q 1784 4516 1784 4263 
Q 1784 4016 1611 3842 
Q 1438 3669 1191 3669 
Q 938 3669 763 3841 
Q 588 4013 588 4263 
z
M 1797 378 
L 2272 378 
L 2272 0 
L 219 0 
L 219 378 
L 691 378 
L 691 2944 
L 219 2944 
L 219 3322 
L 1797 3322 
L 1797 378 
z
" id="DejaVuSerif-Bold-69" transform="scale(0.015625)"/>
      <path d="M 219 0 
L 219 378 
L 691 378 
L 691 2944 
L 219 2944 
L 219 3322 
L 1797 3322 
L 1797 2853 
Q 1997 3150 2253 3281 
Q 2509 3413 2900 3413 
Q 3459 3413 3745 3083 
Q 4031 2753 4031 2113 
L 4031 378 
L 4506 378 
L 4506 0 
L 2522 0 
L 2522 378 
L 2925 378 
L 2925 2144 
Q 2925 2566 2817 2730 
Q 2709 2894 2444 2894 
Q 2109 2894 1953 2648 
Q 1797 2403 1797 1869 
L 1797 378 
L 2203 378 
L 2203 0 
L 219 0 
z
" id="DejaVuSerif-Bold-6e" transform="scale(0.015625)"/>
     </defs>
     <use transform="translate(0 0.015625)" xlink:href="#DejaVuSans-BoldOblique-63"/>
     <use transform="translate(59.277344 -16.390625)scale(0.7)" xlink:href="#DejaVuSans-BoldOblique-54"/>
     <use transform="translate(109.760742 0.015625)" xlink:href="#DejaVuSans-Bold-28"/>
     <use transform="translate(155.463867 0.015625)" xlink:href="#DejaVuSans-BoldOblique-6d"/>
     <use transform="translate(259.663086 0.015625)" xlink:href="#DejaVuSans-Bold-29"/>
     <use transform="translate(326.206055 0.015625)" xlink:href="#DejaVuSans-Bold-3d"/>
     <use transform="translate(430.834961 0.015625)" xlink:href="#DejaVuSans-Bold-34"/>
     <use transform="translate(500.415039 0.015625)" xlink:href="#DejaVuSans-Bold-35"/>
     <use transform="translate(569.995117 0.015625)" xlink:href="#DejaVuSerif-Bold-20"/>
     <use transform="translate(604.80957 0.015625)" xlink:href="#DejaVuSerif-Bold-64"/>
     <use transform="translate(674.731445 0.015625)" xlink:href="#DejaVuSerif-Bold-65"/>
     <use transform="translate(738.354492 0.015625)" xlink:href="#DejaVuSerif-Bold-67"/>
     <use transform="translate(808.276367 0.015625)" xlink:href="#DejaVuSerif-Bold-72"/>
     <use transform="translate(860.961914 0.015625)" xlink:href="#DejaVuSerif-Bold-65"/>
     <use transform="translate(924.584961 0.015625)" xlink:href="#DejaVuSerif-Bold-65"/>
     <use transform="translate(988.208008 0.015625)" xlink:href="#DejaVuSerif-Bold-20"/>
     <use transform="translate(1023.022461 0.015625)" xlink:href="#DejaVuSerif-Bold-6c"/>
     <use transform="translate(1061.010742 0.015625)" xlink:href="#DejaVuSerif-Bold-69"/>
     <use transform="translate(1098.999023 0.015625)" xlink:href="#DejaVuSerif-Bold-6e"/>
     <use transform="translate(1171.704102 0.015625)" xlink:href="#DejaVuSerif-Bold-65"/>
    </g>
   </g>
   <g id="text_2">
    <!-- $c_{T-1 }(m)$ -->
    <g transform="translate(692.378182 196.575429)scale(0.22 -0.22)">
     <defs>
      <path d="M 678 2375 
L 4684 2375 
L 4684 1638 
L 678 1638 
L 678 2375 
z
" id="DejaVuSans-Bold-2212" transform="scale(0.015625)"/>
      <path d="M 750 831 
L 1813 831 
L 1813 3847 
L 722 3622 
L 722 4441 
L 1806 4666 
L 2950 4666 
L 2950 831 
L 4013 831 
L 4013 0 
L 750 0 
L 750 831 
z
" id="DejaVuSans-Bold-31" transform="scale(0.015625)"/>
     </defs>
     <use transform="translate(0 0.125)" xlink:href="#DejaVuSans-BoldOblique-63"/>
     <use transform="translate(59.277344 -16.28125)scale(0.7)" xlink:href="#DejaVuSans-BoldOblique-54"/>
     <use transform="translate(121.614258 -16.28125)scale(0.7)" xlink:href="#DejaVuSans-Bold-2212"/>
     <use transform="translate(194.854492 -16.28125)scale(0.7)" xlink:href="#DejaVuSans-Bold-31"/>
     <use transform="translate(246.294922 0.125)" xlink:href="#DejaVuSans-Bold-28"/>
     <use transform="translate(291.998047 0.125)" xlink:href="#DejaVuSans-BoldOblique-6d"/>
     <use transform="translate(396.197266 0.125)" xlink:href="#DejaVuSans-Bold-29"/>
    </g>
   </g>
   <g id="text_3">
    <!-- $c_{T-5 }(m)$ -->
    <g transform="translate(692.378182 385.282286)scale(0.22 -0.22)">
     <use transform="translate(0 0.125)" xlink:href="#DejaVuSans-BoldOblique-63"/>
     <use transform="translate(59.277344 -16.28125)scale(0.7)" xlink:href="#DejaVuSans-BoldOblique-54"/>
     <use transform="translate(121.614258 -16.28125)scale(0.7)" xlink:href="#DejaVuSans-Bold-2212"/>
     <use transform="translate(194.854492 -16.28125)scale(0.7)" xlink:href="#DejaVuSans-Bold-35"/>
     <use transform="translate(246.294922 0.125)" xlink:href="#DejaVuSans-Bold-28"/>
     <use transform="translate(291.998047 0.125)" xlink:href="#DejaVuSans-BoldOblique-6d"/>
     <use transform="translate(396.197266 0.125)" xlink:href="#DejaVuSans-Bold-29"/>
    </g>
   </g>
   <g id="text_4">
    <!-- $c_{T-10}(m)$ -->
    <g transform="translate(692.378182 420.228)scale(0.22 -0.22)">
     <defs>
      <path d="M 2944 2338 
Q 2944 3213 2780 3570 
Q 2616 3928 2228 3928 
Q 1841 3928 1675 3570 
Q 1509 3213 1509 2338 
Q 1509 1453 1675 1090 
Q 1841 728 2228 728 
Q 2613 728 2778 1090 
Q 2944 1453 2944 2338 
z
M 4147 2328 
Q 4147 1169 3647 539 
Q 3147 -91 2228 -91 
Q 1306 -91 806 539 
Q 306 1169 306 2328 
Q 306 3491 806 4120 
Q 1306 4750 2228 4750 
Q 3147 4750 3647 4120 
Q 4147 3491 4147 2328 
z
" id="DejaVuSans-Bold-30" transform="scale(0.015625)"/>
     </defs>
     <use transform="translate(0 0.125)" xlink:href="#DejaVuSans-BoldOblique-63"/>
     <use transform="translate(59.277344 -16.28125)scale(0.7)" xlink:href="#DejaVuSans-BoldOblique-54"/>
     <use transform="translate(121.614258 -16.28125)scale(0.7)" xlink:href="#DejaVuSans-Bold-2212"/>
     <use transform="translate(194.854492 -16.28125)scale(0.7)" xlink:href="#DejaVuSans-Bold-31"/>
     <use transform="translate(243.560547 -16.28125)scale(0.7)" xlink:href="#DejaVuSans-Bold-30"/>
     <use transform="translate(295.000977 0.125)" xlink:href="#DejaVuSans-Bold-28"/>
     <use transform="translate(340.704102 0.125)" xlink:href="#DejaVuSans-BoldOblique-6d"/>
     <use transform="translate(444.90332 0.125)" xlink:href="#DejaVuSans-Bold-29"/>
    </g>
   </g>
   <g id="text_5">
    <!-- $c(m)       $ -->
    <g transform="translate(692.378182 448.184571)scale(0.22 -0.22)">
     <use transform="translate(0 0.125)" xlink:href="#DejaVuSans-BoldOblique-63"/>
     <use transform="translate(59.277344 0.125)" xlink:href="#DejaVuSans-Bold-28"/>
     <use transform="translate(104.980469 0.125)" xlink:href="#DejaVuSans-BoldOblique-6d"/>
     <use transform="translate(209.179688 0.125)" xlink:href="#DejaVuSans-Bold-29"/>
    </g>
   </g>
   <g id="text_6">
    <!-- $c$ -->
    <g transform="translate(108 74.265429)scale(0.26 -0.26)">
     <use xlink:href="#DejaVuSans-BoldOblique-63"/>
    </g>
   </g>
   <g id="text_7">
    <!-- $m$ -->
    <g transform="translate(783.687273 567)scale(0.26 -0.26)">
     <use xlink:href="#DejaVuSans-BoldOblique-6d"/>
    </g>
   </g>
  </g>
 </g>
 <defs>
  <clipPath id="p8a812c681b">
   <rect height="489.24" width="669.6" x="108" y="77.76"/>
  </clipPath>
 </defs>
</svg>
