<?xml version="1.0" encoding="utf-8" standalone="no"?>
<!DOCTYPE svg PUBLIC "-//W3C//DTD SVG 1.1//EN"
  "http://www.w3.org/Graphics/SVG/1.1/DTD/svg11.dtd">
<svg height="576pt" version="1.1" viewBox="0 0 864 576" width="864pt" xmlns="http://www.w3.org/2000/svg" xmlns:xlink="http://www.w3.org/1999/xlink">
 <metadata>
  <rdf:RDF xmlns:cc="http://creativecommons.org/ns#" xmlns:dc="http://purl.org/dc/elements/1.1/" xmlns:rdf="http://www.w3.org/1999/02/22-rdf-syntax-ns#">
   <cc:Work>
    <dc:type rdf:resource="http://purl.org/dc/dcmitype/StillImage"/>
    <dc:date>2021-10-10T17:23:48.202682</dc:date>
    <dc:format>image/svg+xml</dc:format>
    <dc:creator>
     <cc:Agent>
      <dc:title>Matplotlib v3.4.2, https://matplotlib.org/</dc:title>
     </cc:Agent>
    </dc:creator>
   </cc:Work>
  </rdf:RDF>
 </metadata>
 <defs>
  <style type="text/css">*{stroke-linecap:butt;stroke-linejoin:round;}</style>
 </defs>
 <g id="figure_1">
  <g id="patch_1">
   <path d="M 0 576 
L 864 576 
L 864 0 
L 0 0 
z
" style="fill:none;"/>
  </g>
  <g id="axes_1">
   <g id="patch_2">
    <path d="M 108 504 
L 777.6 504 
L 777.6 69.12 
L 108 69.12 
z
" style="fill:#ffffff;"/>
   </g>
   <g id="patch_3">
    <path clip-path="url(#pe42f46266f)" d="M 160.2288 409.203783 
L 162.262757 407.25626 
L 162.23653 409.425093 
L 173.621335 410.931413 
L 173.620265 411.019937 
L 162.23546 409.513617 
L 162.209232 411.68245 
z
" style="stroke:#000000;stroke-linejoin:miter;"/>
   </g>
   <g id="patch_4">
    <path clip-path="url(#pe42f46266f)" d="M 140.1408 195.253879 
L 142.24191 194.385138 
L 142.113217 196.513554 
L 153.535426 204.069902 
L 153.530174 204.156776 
L 142.107964 196.600428 
L 141.979271 198.728845 
z
" style="stroke:#000000;stroke-linejoin:miter;"/>
   </g>
   <g id="patch_5">
    <path clip-path="url(#pe42f46266f)" d="M 407.9808 168.438743 
L 412.074113 164.846596 
L 412.003107 168.604534 
L 429.420531 172.205307 
L 429.395469 173.531638 
L 411.978045 169.930865 
L 411.907039 173.688803 
z
" style="stroke:#000000;stroke-linejoin:miter;"/>
   </g>
   <g id="patch_6">
    <path clip-path="url(#pe42f46266f)" d="M 256.6512 56.597295 
L 258.66 54.38243 
L 258.66 56.552997 
L 267.3648 56.552997 
L 267.3648 56.641592 
L 258.66 56.641592 
L 258.66 58.81216 
z
" style="stroke:#000000;stroke-linejoin:miter;"/>
   </g>
   <g id="patch_7">
    <path clip-path="url(#pe42f46266f)" d="M 496.368 450.843243 
L 494.26689 451.711984 
L 494.395583 449.583568 
L 482.973374 442.027221 
L 482.978626 441.940346 
L 494.400836 449.496694 
L 494.529529 447.368277 
z
" style="stroke:#000000;stroke-linejoin:miter;"/>
   </g>
   <g id="matplotlib.axis_1">
    <g id="xtick_1">
     <g id="line2d_1">
      <defs>
       <path d="M 0 0 
L 0 3.5 
" id="meeadf989ac" style="stroke:#000000;stroke-width:0.8;"/>
      </defs>
      <g>
       <use style="stroke:#000000;stroke-width:0.8;" x="108" xlink:href="#meeadf989ac" y="504"/>
      </g>
     </g>
     <g id="line2d_2">
      <defs>
       <path d="M 0 0 
L 0 -3.5 
" id="m9145ca5b86" style="stroke:#000000;stroke-width:0.8;"/>
      </defs>
      <g>
       <use style="stroke:#000000;stroke-width:0.8;" x="108" xlink:href="#m9145ca5b86" y="69.12"/>
      </g>
     </g>
    </g>
    <g id="xtick_2">
     <g id="line2d_3">
      <g>
       <use style="stroke:#000000;stroke-width:0.8;" x="241.92" xlink:href="#meeadf989ac" y="504"/>
      </g>
     </g>
     <g id="line2d_4">
      <g>
       <use style="stroke:#000000;stroke-width:0.8;" x="241.92" xlink:href="#m9145ca5b86" y="69.12"/>
      </g>
     </g>
    </g>
    <g id="xtick_3">
     <g id="line2d_5">
      <g>
       <use style="stroke:#000000;stroke-width:0.8;" x="375.84" xlink:href="#meeadf989ac" y="504"/>
      </g>
     </g>
     <g id="line2d_6">
      <g>
       <use style="stroke:#000000;stroke-width:0.8;" x="375.84" xlink:href="#m9145ca5b86" y="69.12"/>
      </g>
     </g>
    </g>
    <g id="xtick_4">
     <g id="line2d_7">
      <g>
       <use style="stroke:#000000;stroke-width:0.8;" x="509.76" xlink:href="#meeadf989ac" y="504"/>
      </g>
     </g>
     <g id="line2d_8">
      <g>
       <use style="stroke:#000000;stroke-width:0.8;" x="509.76" xlink:href="#m9145ca5b86" y="69.12"/>
      </g>
     </g>
    </g>
    <g id="xtick_5">
     <g id="line2d_9">
      <g>
       <use style="stroke:#000000;stroke-width:0.8;" x="643.68" xlink:href="#meeadf989ac" y="504"/>
      </g>
     </g>
     <g id="line2d_10">
      <g>
       <use style="stroke:#000000;stroke-width:0.8;" x="643.68" xlink:href="#m9145ca5b86" y="69.12"/>
      </g>
     </g>
    </g>
    <g id="xtick_6">
     <g id="line2d_11">
      <g>
       <use style="stroke:#000000;stroke-width:0.8;" x="777.6" xlink:href="#meeadf989ac" y="504"/>
      </g>
     </g>
     <g id="line2d_12">
      <g>
       <use style="stroke:#000000;stroke-width:0.8;" x="777.6" xlink:href="#m9145ca5b86" y="69.12"/>
      </g>
     </g>
    </g>
   </g>
   <g id="matplotlib.axis_2">
    <g id="ytick_1">
     <g id="line2d_13">
      <defs>
       <path d="M 0 0 
L -3.5 0 
" id="m916bf08789" style="stroke:#000000;stroke-width:0.8;"/>
      </defs>
      <g>
       <use style="stroke:#000000;stroke-width:0.8;" x="108" xlink:href="#m916bf08789" y="504"/>
      </g>
     </g>
     <g id="line2d_14">
      <defs>
       <path d="M 0 0 
L 3.5 0 
" id="m7d45ba7319" style="stroke:#000000;stroke-width:0.8;"/>
      </defs>
      <g>
       <use style="stroke:#000000;stroke-width:0.8;" x="777.6" xlink:href="#m7d45ba7319" y="504"/>
      </g>
     </g>
    </g>
    <g id="ytick_2">
     <g id="line2d_15">
      <g>
       <use style="stroke:#000000;stroke-width:0.8;" x="108" xlink:href="#m916bf08789" y="415.405405"/>
      </g>
     </g>
     <g id="line2d_16">
      <g>
       <use style="stroke:#000000;stroke-width:0.8;" x="777.6" xlink:href="#m7d45ba7319" y="415.405405"/>
      </g>
     </g>
    </g>
    <g id="ytick_3">
     <g id="line2d_17">
      <g>
       <use style="stroke:#000000;stroke-width:0.8;" x="108" xlink:href="#m916bf08789" y="326.81081"/>
      </g>
     </g>
     <g id="line2d_18">
      <g>
       <use style="stroke:#000000;stroke-width:0.8;" x="777.6" xlink:href="#m7d45ba7319" y="326.81081"/>
      </g>
     </g>
    </g>
    <g id="ytick_4">
     <g id="line2d_19">
      <g>
       <use style="stroke:#000000;stroke-width:0.8;" x="108" xlink:href="#m916bf08789" y="238.216215"/>
      </g>
     </g>
     <g id="line2d_20">
      <g>
       <use style="stroke:#000000;stroke-width:0.8;" x="777.6" xlink:href="#m7d45ba7319" y="238.216215"/>
      </g>
     </g>
    </g>
    <g id="ytick_5">
     <g id="line2d_21">
      <g>
       <use style="stroke:#000000;stroke-width:0.8;" x="108" xlink:href="#m916bf08789" y="149.62162"/>
      </g>
     </g>
     <g id="line2d_22">
      <g>
       <use style="stroke:#000000;stroke-width:0.8;" x="777.6" xlink:href="#m7d45ba7319" y="149.62162"/>
      </g>
     </g>
    </g>
   </g>
   <g id="line2d_23">
    <path clip-path="url(#pe42f46266f)" d="M 108 504 
L 120.064865 467.139748 
L 125.427027 451.466772 
L 128.778378 442.291805 
L 131.459459 435.583113 
L 133.47027 431.086967 
L 135.481081 427.148352 
L 137.491892 423.782867 
L 139.502703 420.930207 
L 141.513514 418.492919 
L 143.524324 416.377029 
L 146.205405 413.929144 
L 148.886486 411.796198 
L 152.237838 409.450529 
L 155.589189 407.367832 
L 159.610811 405.127646 
L 164.302703 402.786366 
L 169.664865 400.382648 
L 175.697297 397.935091 
L 183.07027 395.209931 
L 191.113514 392.478557 
L 200.497297 389.524143 
L 211.891892 386.184221 
L 224.627027 382.689622 
L 239.372973 378.87789 
L 256.12973 374.777316 
L 275.567568 370.254838 
L 297.686486 365.343158 
L 322.486486 360.065311 
L 350.637838 354.302625 
L 382.810811 347.949502 
L 419.005405 341.035585 
L 459.891892 333.460225 
L 506.140541 325.129584 
L 558.421622 315.95432 
L 616.735135 305.959442 
L 683.762162 294.705106 
L 777.6 279.175671 
L 777.6 279.175671 
" style="fill:none;stroke:#000000;stroke-linecap:square;stroke-width:1.5;"/>
   </g>
   <g id="line2d_24">
    <path clip-path="url(#pe42f46266f)" d="M 108 191.551339 
L 213.251121 179.630887 
L 213.251121 179.630887 
" style="fill:none;stroke:#000000;stroke-dasharray:5.55,2.4;stroke-dashoffset:0;stroke-width:1.5;"/>
   </g>
   <g id="line2d_25">
    <path clip-path="url(#pe42f46266f)" d="M 213.251121 179.630887 
L 777.6 115.714286 
L 777.6 115.714286 
" style="fill:none;stroke:#000000;stroke-linecap:square;stroke-width:2.5;"/>
   </g>
   <g id="line2d_26">
    <path clip-path="url(#pe42f46266f)" d="M 108 504 
L 213.251121 179.630887 
L 213.251121 179.630887 
" style="fill:none;stroke:#000000;stroke-linecap:square;stroke-width:2.5;"/>
   </g>
   <g id="line2d_27">
    <path clip-path="url(#pe42f46266f)" d="M 213.251121 179.630887 
L 271.862138 -1 
L 271.862138 -1 
" style="fill:none;stroke:#000000;stroke-dasharray:5.55,2.4;stroke-dashoffset:0;stroke-width:1.5;"/>
   </g>
   <g id="line2d_28">
    <path clip-path="url(#pe42f46266f)" d="M 108 504 
L 213.251121 492.079548 
L 213.251121 492.079548 
" style="fill:none;stroke:#000000;stroke-linecap:square;stroke-width:2.5;"/>
   </g>
   <g id="line2d_29">
    <path clip-path="url(#pe42f46266f)" d="M 213.251121 492.079548 
L 777.6 428.162946 
L 777.6 428.162946 
" style="fill:none;stroke:#000000;stroke-linecap:square;stroke-width:2.5;"/>
   </g>
   <g id="patch_8">
    <path d="M 108 504 
L 108 69.12 
" style="fill:none;stroke:#000000;stroke-linecap:square;stroke-linejoin:miter;stroke-width:0.8;"/>
   </g>
   <g id="patch_9">
    <path d="M 777.6 504 
L 777.6 69.12 
" style="fill:none;stroke:#000000;stroke-linecap:square;stroke-linejoin:miter;stroke-width:0.8;"/>
   </g>
   <g id="patch_10">
    <path d="M 108 504 
L 777.6 504 
" style="fill:none;stroke:#000000;stroke-linecap:square;stroke-linejoin:miter;stroke-width:0.8;"/>
   </g>
   <g id="patch_11">
    <path d="M 108 69.12 
L 777.6 69.12 
" style="fill:none;stroke:#000000;stroke-linecap:square;stroke-linejoin:miter;stroke-width:0.8;"/>
   </g>
   <g id="text_1">
    <!-- $c$ -->
    <g transform="translate(108 64.69027)scale(0.22 -0.22)">
     <defs>
      <path d="M 3719 3391 
L 3541 2478 
Q 3316 2628 3097 2706 
Q 2878 2784 2669 2784 
Q 2122 2784 1775 2417 
Q 1428 2050 1428 1478 
Q 1428 1113 1643 911 
Q 1859 709 2253 709 
Q 2516 709 2769 787 
Q 3022 866 3250 1019 
L 3078 103 
Q 2800 6 2519 -42 
Q 2238 -91 1953 -91 
Q 1128 -91 683 279 
Q 238 650 238 1331 
Q 238 1759 402 2162 
Q 566 2566 872 2888 
Q 1213 3241 1653 3412 
Q 2094 3584 2669 3584 
Q 2934 3584 3196 3536 
Q 3459 3488 3719 3391 
z
" id="DejaVuSans-BoldOblique-63" transform="scale(0.015625)"/>
     </defs>
     <use xlink:href="#DejaVuSans-BoldOblique-63"/>
    </g>
   </g>
   <g id="text_2">
    <!-- $m$ -->
    <g transform="translate(780.2784 504)scale(0.22 -0.22)">
     <defs>
      <path d="M 4013 2919 
Q 4272 3241 4601 3412 
Q 4931 3584 5288 3584 
Q 5756 3584 6026 3326 
Q 6297 3069 6297 2619 
Q 6297 2525 6283 2404 
Q 6269 2284 6241 2131 
L 5825 0 
L 4697 0 
L 5050 1825 
L 5059 1872 
Q 5141 2259 5141 2369 
Q 5141 2541 5042 2641 
Q 4944 2741 4775 2741 
Q 4453 2741 4229 2477 
Q 4006 2213 3909 1722 
L 3572 0 
L 2444 0 
L 2803 1825 
Q 2850 2059 2869 2179 
Q 2888 2300 2888 2369 
Q 2888 2544 2791 2642 
Q 2694 2741 2522 2741 
Q 2213 2741 1980 2467 
Q 1747 2194 1656 1722 
L 1319 0 
L 197 0 
L 878 3500 
L 2003 3500 
L 1900 2988 
Q 2163 3284 2459 3434 
Q 2756 3584 3078 3584 
Q 3441 3584 3700 3398 
Q 3959 3213 4013 2919 
z
" id="DejaVuSans-BoldOblique-6d" transform="scale(0.015625)"/>
     </defs>
     <use xlink:href="#DejaVuSans-BoldOblique-6d"/>
    </g>
   </g>
   <g id="text_3">
    <!-- $c(m)$ -->
    <g transform="translate(174.96 415.405405)scale(0.22 -0.22)">
     <defs>
      <path d="M 2413 -844 
L 1484 -844 
Q 1006 -72 778 623 
Q 550 1319 550 2003 
Q 550 2688 779 3389 
Q 1009 4091 1484 4856 
L 2413 4856 
Q 2013 4116 1813 3408 
Q 1613 2700 1613 2009 
Q 1613 1319 1811 609 
Q 2009 -100 2413 -844 
z
" id="DejaVuSans-Bold-28" transform="scale(0.015625)"/>
      <path d="M 513 -844 
Q 913 -100 1113 609 
Q 1313 1319 1313 2009 
Q 1313 2700 1113 3408 
Q 913 4116 513 4856 
L 1441 4856 
Q 1916 4091 2145 3389 
Q 2375 2688 2375 2003 
Q 2375 1319 2147 623 
Q 1919 -72 1441 -844 
L 513 -844 
z
" id="DejaVuSans-Bold-29" transform="scale(0.015625)"/>
     </defs>
     <use transform="translate(0 0.125)" xlink:href="#DejaVuSans-BoldOblique-63"/>
     <use transform="translate(59.277344 0.125)" xlink:href="#DejaVuSans-Bold-28"/>
     <use transform="translate(104.980469 0.125)" xlink:href="#DejaVuSans-BoldOblique-6d"/>
     <use transform="translate(209.179688 0.125)" xlink:href="#DejaVuSans-Bold-29"/>
    </g>
   </g>
   <g id="text_4">
    <!-- $\overline{\overline{c}}(m)= \overline{\kappa}m = (1-\wp^{1/\rho}$Þ$_{R})m$ -->
    <g transform="translate(268.704 61.027024)scale(0.22 -0.22)">
     <defs>
      <path d="M 678 3084 
L 4684 3084 
L 4684 2350 
L 678 2350 
L 678 3084 
z
M 678 1663 
L 4684 1663 
L 4684 922 
L 678 922 
L 678 1663 
z
" id="DejaVuSans-Bold-3d" transform="scale(0.015625)"/>
      <path d="M 1578 1344 
L 1316 0 
L 197 0 
L 878 3500 
L 1997 3500 
L 1800 2497 
L 3103 3500 
L 4347 3500 
L 2763 2266 
L 3850 0 
L 2522 0 
L 1797 1513 
L 1578 1344 
z
" id="DejaVuSans-BoldOblique-3ba" transform="scale(0.015625)"/>
      <path d="M 750 831 
L 1813 831 
L 1813 3847 
L 722 3622 
L 722 4441 
L 1806 4666 
L 2950 4666 
L 2950 831 
L 4013 831 
L 4013 0 
L 750 0 
L 750 831 
z
" id="DejaVuSans-Bold-31" transform="scale(0.015625)"/>
      <path d="M 678 2375 
L 4684 2375 
L 4684 1638 
L 678 1638 
L 678 2375 
z
" id="DejaVuSans-Bold-2212" transform="scale(0.015625)"/>
      <path d="M 1828 2953 
Q 1466 2547 1466 2019 
Q 1466 1753 1528 1538 
Q 1684 1734 2256 2222 
Q 2947 2813 3353 2813 
Q 3769 2813 3981 2575 
Q 4209 2325 4209 1791 
Q 4209 1109 3722 438 
Q 3341 -84 2800 -88 
Q 2488 -88 2247 103 
Q 2303 238 2363 425 
Q 2481 313 2794 313 
Q 3134 313 3400 706 
Q 3594 994 3594 1547 
Q 3594 1894 3488 2097 
Q 3397 2269 3219 2269 
Q 2688 2269 1694 1169 
Q 2072 341 2072 -138 
Q 2072 -628 1856 -972 
Q 1578 -1416 1122 -1416 
Q 722 -1416 541 -1225 
Q 344 -1019 344 -600 
Q 344 234 1041 1022 
Q 897 1516 897 1913 
Q 897 2656 1622 3169 
L 1828 2953 
z
M 1213 584 
Q 872 59 872 -266 
Q 872 -572 953 -700 
Q 1078 -888 1203 -888 
Q 1372 -888 1450 -763 
Q 1534 -625 1534 -372 
Q 1534 -166 1213 584 
z
" id="DejaVuSans-Bold-2118" transform="scale(0.015625)"/>
      <path d="M 1644 4666 
L 2338 4666 
L 691 -594 
L 0 -594 
L 1644 4666 
z
" id="DejaVuSans-Bold-2f" transform="scale(0.015625)"/>
      <path d="M 3741 425 
Q 3225 -91 2547 -91 
Q 1869 -91 1534 506 
L 1178 -1331 
L 59 -1331 
L 647 1688 
Q 816 2566 1344 2991 
Q 1869 3413 2275 3503 
Q 2681 3594 2928 3594 
Q 3178 3594 3294 3584 
Q 3894 3538 4256 3069 
Q 4472 2781 4472 2300 
Q 4472 2050 4413 1747 
Q 4256 938 3741 425 
z
M 3297 2119 
Q 3297 2772 2719 2772 
Q 2359 2772 2116 2506 
Q 1872 2244 1775 1747 
Q 1738 1544 1738 1344 
Q 1738 1144 1819 988 
Q 1963 722 2322 722 
Q 2681 722 2919 984 
Q 3159 1247 3256 1747 
Q 3297 1953 3297 2119 
z
" id="DejaVuSans-BoldOblique-3c1" transform="scale(0.015625)"/>
      <path d="M 300 0 
L 300 378 
L 897 378 
L 897 4288 
L 300 4288 
L 300 4666 
L 2847 4666 
L 2847 4288 
L 2100 4288 
L 2100 3756 
L 2956 3756 
Q 3734 3756 4193 3386 
Q 4653 3016 4653 2394 
Q 4653 1772 4192 1398 
Q 3731 1025 2956 1025 
L 2100 1025 
L 2100 378 
L 2853 378 
L 2853 0 
L 300 0 
z
M 2100 1403 
L 2450 1403 
Q 2856 1403 3098 1672 
Q 3341 1941 3341 2394 
Q 3341 2844 3100 3111 
Q 2859 3378 2450 3378 
L 2100 3378 
L 2100 1403 
z
" id="DejaVuSerif-Bold-de" transform="scale(0.015625)"/>
      <path d="M 2350 2597 
Q 2759 2597 2970 2787 
Q 3181 2978 3181 3347 
Q 3181 3578 3036 3686 
Q 2891 3794 2578 3794 
L 2081 3794 
L 1844 2597 
L 2350 2597 
z
M 1684 1766 
L 1338 0 
L 134 0 
L 1044 4666 
L 2822 4666 
Q 3591 4666 3987 4378 
Q 4384 4091 4384 3531 
Q 4384 2966 4071 2600 
Q 3759 2234 3225 2181 
Q 3469 2131 3631 1932 
Q 3794 1734 3916 1325 
L 4313 0 
L 3116 0 
L 2766 1159 
Q 2659 1506 2507 1636 
Q 2356 1766 2069 1766 
L 1684 1766 
z
" id="DejaVuSans-BoldOblique-52" transform="scale(0.015625)"/>
     </defs>
     <use transform="translate(0 1.5)" xlink:href="#DejaVuSans-BoldOblique-63"/>
     <use transform="translate(59.277344 0.5)" xlink:href="#DejaVuSans-Bold-28"/>
     <use transform="translate(104.980469 0.5)" xlink:href="#DejaVuSans-BoldOblique-6d"/>
     <use transform="translate(209.179688 0.5)" xlink:href="#DejaVuSans-Bold-29"/>
     <use transform="translate(275.722656 0.5)" xlink:href="#DejaVuSans-Bold-3d"/>
     <use transform="translate(380.351562 1)" xlink:href="#DejaVuSans-BoldOblique-3ba"/>
     <use transform="translate(451.396484 0.5)" xlink:href="#DejaVuSans-BoldOblique-6d"/>
     <use transform="translate(576.435547 0.5)" xlink:href="#DejaVuSans-Bold-3d"/>
     <use transform="translate(681.064453 0.5)" xlink:href="#DejaVuSans-Bold-28"/>
     <use transform="translate(726.767578 0.5)" xlink:href="#DejaVuSans-Bold-31"/>
     <use transform="translate(817.1875 0.5)" xlink:href="#DejaVuSans-Bold-2212"/>
     <use transform="translate(921.816406 0.5)" xlink:href="#DejaVuSans-Bold-2118"/>
     <use transform="translate(992.5 38.78125)scale(0.7)" xlink:href="#DejaVuSans-Bold-31"/>
     <use transform="translate(1041.206055 38.78125)scale(0.7)" xlink:href="#DejaVuSans-Bold-2f"/>
     <use transform="translate(1066.772461 38.78125)scale(0.7)" xlink:href="#DejaVuSans-BoldOblique-3c1"/>
     <use transform="translate(1119.614258 0.5)" xlink:href="#DejaVuSerif-Bold-de"/>
     <use transform="translate(1196.254883 -15.90625)scale(0.7)" xlink:href="#DejaVuSans-BoldOblique-52"/>
     <use transform="translate(1252.890625 0.5)" xlink:href="#DejaVuSans-Bold-29"/>
     <use transform="translate(1298.59375 0.5)" xlink:href="#DejaVuSans-BoldOblique-6d"/>
     <path d="M 0 93.5 
L 0 99.75 
L 59.277344 99.75 
L 59.277344 93.5 
L 0 93.5 
z
"/>
     <path d="M 0 69.25 
L 0 75.5 
L 59.277344 75.5 
L 59.277344 69.25 
L 0 69.25 
z
"/>
     <path d="M 380.351562 67.4375 
L 380.351562 73.6875 
L 451.396484 73.6875 
L 451.396484 67.4375 
L 380.351562 67.4375 
z
"/>
    </g>
   </g>
   <g id="text_5">
    <!-- Upper Bound $ = $ Min $[\overline{\overline{c}}(m),\overline{c}(m)]$ -->
    <g transform="translate(429.408 181.727932)scale(0.22 -0.22)">
     <defs>
      <path d="M 813 4288 
L 219 4288 
L 219 4666 
L 2619 4666 
L 2619 4288 
L 2022 4288 
L 2022 1953 
Q 2022 1081 2294 732 
Q 2566 384 3225 384 
Q 3869 384 4139 736 
Q 4409 1088 4409 1953 
L 4409 4288 
L 3816 4288 
L 3816 4666 
L 5441 4666 
L 5441 4288 
L 4844 4288 
L 4844 1888 
Q 4844 819 4381 364 
Q 3919 -91 2828 -91 
Q 1744 -91 1278 368 
Q 813 828 813 1894 
L 813 4288 
z
" id="DejaVuSerif-Bold-55" transform="scale(0.015625)"/>
      <path d="M 1728 1825 
L 1728 1497 
Q 1728 916 1876 656 
Q 2025 397 2356 397 
Q 2697 397 2836 672 
Q 2975 947 2975 1663 
Q 2975 2378 2836 2651 
Q 2697 2925 2356 2925 
Q 2025 2925 1876 2665 
Q 1728 2406 1728 1825 
z
M 622 2944 
L 147 2944 
L 147 3322 
L 1728 3322 
L 1728 2900 
Q 1869 3159 2106 3286 
Q 2344 3413 2694 3413 
Q 3403 3413 3811 2945 
Q 4219 2478 4219 1663 
Q 4219 847 3811 378 
Q 3403 -91 2694 -91 
Q 2344 -91 2106 36 
Q 1869 163 1728 422 
L 1728 -953 
L 2241 -953 
L 2241 -1331 
L 147 -1331 
L 147 -953 
L 622 -953 
L 622 2944 
z
" id="DejaVuSerif-Bold-70" transform="scale(0.015625)"/>
      <path d="M 2566 1875 
Q 2566 2531 2444 2795 
Q 2322 3059 2028 3059 
Q 1744 3059 1620 2800 
Q 1497 2541 1497 1931 
L 1497 1875 
L 2566 1875 
z
M 3781 1503 
L 1497 1503 
L 1497 1478 
Q 1497 834 1690 548 
Q 1884 263 2316 263 
Q 2675 263 2897 453 
Q 3119 644 3181 1006 
L 3700 1006 
Q 3566 441 3166 175 
Q 2766 -91 2047 -91 
Q 1184 -91 723 364 
Q 263 819 263 1663 
Q 263 2488 734 2950 
Q 1206 3413 2047 3413 
Q 2872 3413 3312 2927 
Q 3753 2441 3781 1503 
z
" id="DejaVuSerif-Bold-65" transform="scale(0.015625)"/>
      <path d="M 3438 3359 
L 3438 2369 
L 3084 2369 
Q 3066 2634 2941 2764 
Q 2816 2894 2578 2894 
Q 2216 2894 2006 2575 
Q 1797 2256 1797 1691 
L 1797 378 
L 2400 378 
L 2400 0 
L 219 0 
L 219 378 
L 691 378 
L 691 2944 
L 184 2944 
L 184 3322 
L 1797 3322 
L 1797 2731 
Q 1959 3078 2226 3245 
Q 2494 3413 2881 3413 
Q 2978 3413 3117 3398 
Q 3256 3384 3438 3359 
z
" id="DejaVuSerif-Bold-72" transform="scale(0.015625)"/>
      <path id="DejaVuSerif-Bold-20" transform="scale(0.015625)"/>
      <path d="M 300 0 
L 300 378 
L 897 378 
L 897 4288 
L 300 4288 
L 300 4666 
L 3066 4666 
Q 3919 4666 4347 4378 
Q 4775 4091 4775 3513 
Q 4775 3097 4479 2853 
Q 4184 2609 3603 2547 
Q 4306 2481 4681 2172 
Q 5056 1863 5056 1350 
Q 5056 656 4532 328 
Q 4009 0 2894 0 
L 300 0 
z
M 2100 2719 
L 2509 2719 
Q 3047 2719 3306 2914 
Q 3566 3109 3566 3513 
Q 3566 3919 3314 4103 
Q 3063 4288 2509 4288 
L 2100 4288 
L 2100 2719 
z
M 2100 378 
L 2547 378 
Q 3144 378 3431 615 
Q 3719 853 3719 1350 
Q 3719 1850 3428 2097 
Q 3138 2344 2547 2344 
L 2100 2344 
L 2100 378 
z
" id="DejaVuSerif-Bold-42" transform="scale(0.015625)"/>
      <path d="M 2138 263 
Q 2488 263 2630 563 
Q 2772 863 2772 1663 
Q 2772 2463 2631 2761 
Q 2491 3059 2138 3059 
Q 1784 3059 1640 2757 
Q 1497 2456 1497 1663 
Q 1497 869 1640 566 
Q 1784 263 2138 263 
z
M 2138 -91 
Q 1259 -91 761 376 
Q 263 844 263 1663 
Q 263 2484 761 2948 
Q 1259 3413 2138 3413 
Q 3019 3413 3516 2948 
Q 4013 2484 4013 1663 
Q 4013 844 3514 376 
Q 3016 -91 2138 -91 
z
" id="DejaVuSerif-Bold-6f" transform="scale(0.015625)"/>
      <path d="M 3963 3322 
L 3963 378 
L 4434 378 
L 4434 0 
L 2853 0 
L 2853 469 
Q 2656 172 2400 40 
Q 2144 -91 1753 -91 
Q 1194 -91 908 239 
Q 622 569 622 1209 
L 622 2944 
L 147 2944 
L 147 3322 
L 1728 3322 
L 1728 1381 
Q 1728 763 1831 595 
Q 1934 428 2209 428 
Q 2544 428 2698 675 
Q 2853 922 2853 1459 
L 2853 2944 
L 2450 2944 
L 2450 3322 
L 3963 3322 
z
" id="DejaVuSerif-Bold-75" transform="scale(0.015625)"/>
      <path d="M 219 0 
L 219 378 
L 691 378 
L 691 2944 
L 219 2944 
L 219 3322 
L 1797 3322 
L 1797 2853 
Q 1997 3150 2253 3281 
Q 2509 3413 2900 3413 
Q 3459 3413 3745 3083 
Q 4031 2753 4031 2113 
L 4031 378 
L 4506 378 
L 4506 0 
L 2522 0 
L 2522 378 
L 2925 378 
L 2925 2144 
Q 2925 2566 2817 2730 
Q 2709 2894 2444 2894 
Q 2109 2894 1953 2648 
Q 1797 2403 1797 1869 
L 1797 378 
L 2203 378 
L 2203 0 
L 219 0 
z
" id="DejaVuSerif-Bold-6e" transform="scale(0.015625)"/>
      <path d="M 2747 1497 
L 2747 1825 
Q 2747 2406 2597 2665 
Q 2447 2925 2119 2925 
Q 1775 2925 1636 2651 
Q 1497 2378 1497 1663 
Q 1497 947 1637 672 
Q 1778 397 2119 397 
Q 2447 397 2597 656 
Q 2747 916 2747 1497 
z
M 3853 378 
L 4325 378 
L 4325 0 
L 2747 0 
L 2747 422 
Q 2606 163 2367 36 
Q 2128 -91 1778 -91 
Q 1072 -91 667 378 
Q 263 847 263 1663 
Q 263 2481 667 2947 
Q 1072 3413 1778 3413 
Q 2128 3413 2367 3286 
Q 2606 3159 2747 2900 
L 2747 4488 
L 2272 4488 
L 2272 4863 
L 3853 4863 
L 3853 378 
z
" id="DejaVuSerif-Bold-64" transform="scale(0.015625)"/>
      <path d="M 269 0 
L 269 378 
L 863 378 
L 863 4288 
L 269 4288 
L 269 4666 
L 2194 4666 
L 3525 1672 
L 4863 4666 
L 6784 4666 
L 6784 4288 
L 6188 4288 
L 6188 378 
L 6784 378 
L 6784 0 
L 4384 0 
L 4384 378 
L 4978 378 
L 4978 3938 
L 3531 684 
L 2741 684 
L 1300 3938 
L 1300 378 
L 1894 378 
L 1894 0 
L 269 0 
z
" id="DejaVuSerif-Bold-4d" transform="scale(0.015625)"/>
      <path d="M 588 4263 
Q 588 4516 763 4689 
Q 938 4863 1191 4863 
Q 1438 4863 1611 4689 
Q 1784 4516 1784 4263 
Q 1784 4016 1611 3842 
Q 1438 3669 1191 3669 
Q 938 3669 763 3841 
Q 588 4013 588 4263 
z
M 1797 378 
L 2272 378 
L 2272 0 
L 219 0 
L 219 378 
L 691 378 
L 691 2944 
L 219 2944 
L 219 3322 
L 1797 3322 
L 1797 378 
z
" id="DejaVuSerif-Bold-69" transform="scale(0.015625)"/>
      <path d="M 550 4863 
L 2491 4863 
L 2491 4159 
L 1613 4159 
L 1613 -141 
L 2491 -141 
L 2491 -844 
L 550 -844 
L 550 4863 
z
" id="DejaVuSans-Bold-5b" transform="scale(0.015625)"/>
      <path d="M 653 1209 
L 1778 1209 
L 1778 256 
L 1006 -909 
L 341 -909 
L 653 256 
L 653 1209 
z
" id="DejaVuSans-Bold-2c" transform="scale(0.015625)"/>
      <path d="M 2375 -844 
L 434 -844 
L 434 -141 
L 1313 -141 
L 1313 4159 
L 434 4159 
L 434 4863 
L 2375 4863 
L 2375 -844 
z
" id="DejaVuSans-Bold-5d" transform="scale(0.015625)"/>
     </defs>
     <use transform="translate(0 0.5)" xlink:href="#DejaVuSerif-Bold-55"/>
     <use transform="translate(87.207031 0.5)" xlink:href="#DejaVuSerif-Bold-70"/>
     <use transform="translate(157.128906 0.5)" xlink:href="#DejaVuSerif-Bold-70"/>
     <use transform="translate(227.050781 0.5)" xlink:href="#DejaVuSerif-Bold-65"/>
     <use transform="translate(290.673828 0.5)" xlink:href="#DejaVuSerif-Bold-72"/>
     <use transform="translate(343.359375 0.5)" xlink:href="#DejaVuSerif-Bold-20"/>
     <use transform="translate(378.173828 0.5)" xlink:href="#DejaVuSerif-Bold-42"/>
     <use transform="translate(462.695312 0.5)" xlink:href="#DejaVuSerif-Bold-6f"/>
     <use transform="translate(529.394531 0.5)" xlink:href="#DejaVuSerif-Bold-75"/>
     <use transform="translate(602.099609 0.5)" xlink:href="#DejaVuSerif-Bold-6e"/>
     <use transform="translate(674.804688 0.5)" xlink:href="#DejaVuSerif-Bold-64"/>
     <use transform="translate(744.726562 0.5)" xlink:href="#DejaVuSerif-Bold-20"/>
     <use transform="translate(800.380859 0.5)" xlink:href="#DejaVuSans-Bold-3d"/>
     <use transform="translate(905.009766 0.5)" xlink:href="#DejaVuSerif-Bold-20"/>
     <use transform="translate(939.824219 0.5)" xlink:href="#DejaVuSerif-Bold-4d"/>
     <use transform="translate(1050.517578 0.5)" xlink:href="#DejaVuSerif-Bold-69"/>
     <use transform="translate(1088.505859 0.5)" xlink:href="#DejaVuSerif-Bold-6e"/>
     <use transform="translate(1161.210938 0.5)" xlink:href="#DejaVuSerif-Bold-20"/>
     <use transform="translate(1196.025391 0.5)" xlink:href="#DejaVuSans-Bold-5b"/>
     <use transform="translate(1241.728516 1.5)" xlink:href="#DejaVuSans-BoldOblique-63"/>
     <use transform="translate(1301.005859 0.5)" xlink:href="#DejaVuSans-Bold-28"/>
     <use transform="translate(1346.708984 0.5)" xlink:href="#DejaVuSans-BoldOblique-6d"/>
     <use transform="translate(1450.908203 0.5)" xlink:href="#DejaVuSans-Bold-29"/>
     <use transform="translate(1496.611328 0.5)" xlink:href="#DejaVuSans-Bold-2c"/>
     <use transform="translate(1555.439453 1)" xlink:href="#DejaVuSans-BoldOblique-63"/>
     <use transform="translate(1614.716797 0.5)" xlink:href="#DejaVuSans-Bold-28"/>
     <use transform="translate(1660.419922 0.5)" xlink:href="#DejaVuSans-BoldOblique-6d"/>
     <use transform="translate(1764.619141 0.5)" xlink:href="#DejaVuSans-Bold-29"/>
     <use transform="translate(1810.322266 0.5)" xlink:href="#DejaVuSans-Bold-5d"/>
     <path d="M 1241.728516 93.5 
L 1241.728516 99.75 
L 1301.005859 99.75 
L 1301.005859 93.5 
L 1241.728516 93.5 
z
"/>
     <path d="M 1241.728516 69.25 
L 1241.728516 75.5 
L 1301.005859 75.5 
L 1301.005859 69.25 
L 1241.728516 69.25 
z
"/>
     <path d="M 1555.439453 68.75 
L 1555.439453 75 
L 1614.716797 75 
L 1614.716797 68.75 
L 1555.439453 68.75 
z
"/>
    </g>
   </g>
   <g id="text_6">
    <!-- Lower Bound: c̲$(m)= (1-$Þ$_{R})m = \kappa m$ -->
    <g transform="translate(322.272 424.264864)scale(0.22 -0.22)">
     <defs>
      <path d="M 300 0 
L 300 378 
L 897 378 
L 897 4288 
L 300 4288 
L 300 4666 
L 2700 4666 
L 2700 4288 
L 2100 4288 
L 2100 428 
L 3938 428 
L 3938 1166 
L 4359 1166 
L 4359 0 
L 300 0 
z
" id="DejaVuSerif-Bold-4c" transform="scale(0.015625)"/>
      <path d="M 3450 3322 
L 4206 1106 
L 4831 2944 
L 4397 2944 
L 4397 3322 
L 5638 3322 
L 5638 2944 
L 5247 2944 
L 4244 0 
L 3481 0 
L 2778 2081 
L 2069 0 
L 1313 0 
L 306 2944 
L -56 2944 
L -56 3322 
L 1825 3322 
L 1825 2944 
L 1434 2944 
L 2047 1147 
L 2791 3322 
L 3450 3322 
z
" id="DejaVuSerif-Bold-77" transform="scale(0.015625)"/>
      <path d="M 588 2541 
Q 588 2788 761 2963 
Q 934 3138 1178 3138 
Q 1422 3138 1597 2961 
Q 1772 2784 1772 2541 
Q 1772 2297 1598 2125 
Q 1425 1953 1178 1953 
Q 931 1953 759 2125 
Q 588 2297 588 2541 
z
M 588 506 
Q 588 750 761 925 
Q 934 1100 1178 1100 
Q 1422 1100 1597 925 
Q 1772 750 1772 506 
Q 1772 259 1597 84 
Q 1422 -91 1178 -91 
Q 934 -91 761 84 
Q 588 259 588 506 
z
" id="DejaVuSerif-Bold-3a" transform="scale(0.015625)"/>
      <path d="M 3609 1038 
Q 3491 469 3123 189 
Q 2756 -91 2125 -91 
Q 1238 -91 750 368 
Q 263 828 263 1663 
Q 263 2488 744 2950 
Q 1225 3413 2081 3413 
Q 2428 3413 2781 3347 
Q 3134 3281 3500 3150 
L 3500 2228 
L 3150 2228 
Q 3100 2650 2903 2854 
Q 2706 3059 2350 3059 
Q 1888 3059 1692 2746 
Q 1497 2434 1497 1663 
Q 1497 909 1687 586 
Q 1878 263 2309 263 
Q 2644 263 2845 463 
Q 3047 663 3091 1038 
L 3609 1038 
z
" id="DejaVuSerif-Bold-63" transform="scale(0.015625)"/>
      <path d="M 0 -916 
L 0 -1509 
L -3200 -1509 
L -3200 -916 
L 0 -916 
z
" id="DejaVuSerif-Bold-332" transform="scale(0.015625)"/>
     </defs>
     <use transform="translate(0 0.015625)" xlink:href="#DejaVuSerif-Bold-4c"/>
     <use transform="translate(70.3125 0.015625)" xlink:href="#DejaVuSerif-Bold-6f"/>
     <use transform="translate(137.011719 0.015625)" xlink:href="#DejaVuSerif-Bold-77"/>
     <use transform="translate(223.095703 0.015625)" xlink:href="#DejaVuSerif-Bold-65"/>
     <use transform="translate(286.71875 0.015625)" xlink:href="#DejaVuSerif-Bold-72"/>
     <use transform="translate(339.404297 0.015625)" xlink:href="#DejaVuSerif-Bold-20"/>
     <use transform="translate(374.21875 0.015625)" xlink:href="#DejaVuSerif-Bold-42"/>
     <use transform="translate(458.740234 0.015625)" xlink:href="#DejaVuSerif-Bold-6f"/>
     <use transform="translate(525.439453 0.015625)" xlink:href="#DejaVuSerif-Bold-75"/>
     <use transform="translate(598.144531 0.015625)" xlink:href="#DejaVuSerif-Bold-6e"/>
     <use transform="translate(670.849609 0.015625)" xlink:href="#DejaVuSerif-Bold-64"/>
     <use transform="translate(740.771484 0.015625)" xlink:href="#DejaVuSerif-Bold-3a"/>
     <use transform="translate(777.685547 0.015625)" xlink:href="#DejaVuSerif-Bold-20"/>
     <use transform="translate(812.5 0.015625)" xlink:href="#DejaVuSerif-Bold-63"/>
     <use transform="translate(873.388672 0.015625)" xlink:href="#DejaVuSerif-Bold-332"/>
     <use transform="translate(873.388672 0.015625)" xlink:href="#DejaVuSans-Bold-28"/>
     <use transform="translate(919.091797 0.015625)" xlink:href="#DejaVuSans-BoldOblique-6d"/>
     <use transform="translate(1023.291016 0.015625)" xlink:href="#DejaVuSans-Bold-29"/>
     <use transform="translate(1089.833984 0.015625)" xlink:href="#DejaVuSans-Bold-3d"/>
     <use transform="translate(1194.462891 0.015625)" xlink:href="#DejaVuSans-Bold-28"/>
     <use transform="translate(1240.166016 0.015625)" xlink:href="#DejaVuSans-Bold-31"/>
     <use transform="translate(1330.585938 0.015625)" xlink:href="#DejaVuSans-Bold-2212"/>
     <use transform="translate(1435.214844 0.015625)" xlink:href="#DejaVuSerif-Bold-de"/>
     <use transform="translate(1511.855469 -16.390625)scale(0.7)" xlink:href="#DejaVuSans-BoldOblique-52"/>
     <use transform="translate(1568.491211 0.015625)" xlink:href="#DejaVuSans-Bold-29"/>
     <use transform="translate(1614.194336 0.015625)" xlink:href="#DejaVuSans-BoldOblique-6d"/>
     <use transform="translate(1739.233398 0.015625)" xlink:href="#DejaVuSans-Bold-3d"/>
     <use transform="translate(1843.862305 0.015625)" xlink:href="#DejaVuSans-BoldOblique-3ba"/>
     <use transform="translate(1914.907227 0.015625)" xlink:href="#DejaVuSans-BoldOblique-6d"/>
    </g>
   </g>
   <g id="text_7">
    <!-- $\bar{c}(m) = (m-1+h)\kappa$ -->
    <g transform="translate(153.5328 221.832258)scale(0.22 -0.22)">
     <defs>
      <path d="M -2592 4863 
L -624 4863 
L -624 4275 
L -2592 4275 
L -2592 4863 
z
" id="DejaVuSans-Bold-304" transform="scale(0.015625)"/>
      <path d="M 3053 4013 
L 3053 2375 
L 4684 2375 
L 4684 1638 
L 3053 1638 
L 3053 0 
L 2309 0 
L 2309 1638 
L 678 1638 
L 678 2375 
L 2309 2375 
L 2309 4013 
L 3053 4013 
z
" id="DejaVuSans-Bold-2b" transform="scale(0.015625)"/>
      <path d="M 4128 2131 
L 3713 0 
L 2591 0 
L 2944 1825 
Q 2981 2003 3001 2126 
Q 3022 2250 3022 2322 
Q 3022 2522 2911 2631 
Q 2800 2741 2597 2741 
Q 2250 2741 2001 2470 
Q 1753 2200 1656 1722 
L 1319 0 
L 197 0 
L 1141 4863 
L 2266 4863 
L 1900 2988 
Q 2209 3291 2521 3437 
Q 2834 3584 3175 3584 
Q 3659 3584 3921 3331 
Q 4184 3078 4184 2619 
Q 4184 2519 4170 2397 
Q 4156 2275 4128 2131 
z
" id="DejaVuSans-BoldOblique-68" transform="scale(0.015625)"/>
     </defs>
     <use transform="translate(62.319336 2.015625)" xlink:href="#DejaVuSans-Bold-304"/>
     <use transform="translate(0 0.3125)" xlink:href="#DejaVuSans-BoldOblique-63"/>
     <use transform="translate(59.277344 0.3125)" xlink:href="#DejaVuSans-Bold-28"/>
     <use transform="translate(104.980469 0.3125)" xlink:href="#DejaVuSans-BoldOblique-6d"/>
     <use transform="translate(209.179688 0.3125)" xlink:href="#DejaVuSans-Bold-29"/>
     <use transform="translate(275.722656 0.3125)" xlink:href="#DejaVuSans-Bold-3d"/>
     <use transform="translate(380.351562 0.3125)" xlink:href="#DejaVuSans-Bold-28"/>
     <use transform="translate(426.054688 0.3125)" xlink:href="#DejaVuSans-BoldOblique-6d"/>
     <use transform="translate(551.09375 0.3125)" xlink:href="#DejaVuSans-Bold-2212"/>
     <use transform="translate(655.722656 0.3125)" xlink:href="#DejaVuSans-Bold-31"/>
     <use transform="translate(746.142578 0.3125)" xlink:href="#DejaVuSans-Bold-2b"/>
     <use transform="translate(850.771484 0.3125)" xlink:href="#DejaVuSans-BoldOblique-68"/>
     <use transform="translate(921.962891 0.3125)" xlink:href="#DejaVuSans-Bold-29"/>
     <use transform="translate(967.666016 0.3125)" xlink:href="#DejaVuSans-BoldOblique-3ba"/>
    </g>
   </g>
  </g>
 </g>
 <defs>
  <clipPath id="pe42f46266f">
   <rect height="434.88" width="669.6" x="108" y="69.12"/>
  </clipPath>
 </defs>
</svg>
