<?xml version="1.0" encoding="utf-8" standalone="no"?>
<!DOCTYPE svg PUBLIC "-//W3C//DTD SVG 1.1//EN"
  "http://www.w3.org/Graphics/SVG/1.1/DTD/svg11.dtd">
<svg height="576pt" version="1.1" viewBox="0 0 864 576" width="864pt" xmlns="http://www.w3.org/2000/svg" xmlns:xlink="http://www.w3.org/1999/xlink">
 <metadata>
  <rdf:RDF xmlns:cc="http://creativecommons.org/ns#" xmlns:dc="http://purl.org/dc/elements/1.1/" xmlns:rdf="http://www.w3.org/1999/02/22-rdf-syntax-ns#">
   <cc:Work>
    <dc:type rdf:resource="http://purl.org/dc/dcmitype/StillImage"/>
    <dc:date>2021-10-10T17:19:05.525829</dc:date>
    <dc:format>image/svg+xml</dc:format>
    <dc:creator>
     <cc:Agent>
      <dc:title>Matplotlib v3.4.2, https://matplotlib.org/</dc:title>
     </cc:Agent>
    </dc:creator>
   </cc:Work>
  </rdf:RDF>
 </metadata>
 <defs>
  <style type="text/css">*{stroke-linecap:butt;stroke-linejoin:round;}</style>
 </defs>
 <g id="figure_1">
  <g id="patch_1">
   <path d="M 0 576 
L 864 576 
L 864 0 
L 0 0 
z
" style="fill:none;"/>
  </g>
  <g id="axes_1">
   <g id="patch_2">
    <path d="M 108 504 
L 777.6 504 
L 777.6 69.12 
L 108 69.12 
z
" style="fill:#ffffff;"/>
   </g>
   <g id="matplotlib.axis_1">
    <g id="xtick_1">
     <g id="line2d_1">
      <defs>
       <path d="M 0 0 
L 0 3.5 
" id="m6138b0826c" style="stroke:#000000;stroke-width:0.8;"/>
      </defs>
      <g>
       <use style="stroke:#000000;stroke-width:0.8;" x="108" xlink:href="#m6138b0826c" y="504"/>
      </g>
     </g>
     <g id="line2d_2">
      <defs>
       <path d="M 0 0 
L 0 -3.5 
" id="mf3bdcbc47a" style="stroke:#000000;stroke-width:0.8;"/>
      </defs>
      <g>
       <use style="stroke:#000000;stroke-width:0.8;" x="108" xlink:href="#mf3bdcbc47a" y="69.12"/>
      </g>
     </g>
    </g>
    <g id="xtick_2">
     <g id="line2d_3">
      <g>
       <use style="stroke:#000000;stroke-width:0.8;" x="184.090909" xlink:href="#m6138b0826c" y="504"/>
      </g>
     </g>
     <g id="line2d_4">
      <g>
       <use style="stroke:#000000;stroke-width:0.8;" x="184.090909" xlink:href="#mf3bdcbc47a" y="69.12"/>
      </g>
     </g>
    </g>
    <g id="xtick_3">
     <g id="line2d_5">
      <g>
       <use style="stroke:#000000;stroke-width:0.8;" x="260.181818" xlink:href="#m6138b0826c" y="504"/>
      </g>
     </g>
     <g id="line2d_6">
      <g>
       <use style="stroke:#000000;stroke-width:0.8;" x="260.181818" xlink:href="#mf3bdcbc47a" y="69.12"/>
      </g>
     </g>
    </g>
    <g id="xtick_4">
     <g id="line2d_7">
      <g>
       <use style="stroke:#000000;stroke-width:0.8;" x="336.272727" xlink:href="#m6138b0826c" y="504"/>
      </g>
     </g>
     <g id="line2d_8">
      <g>
       <use style="stroke:#000000;stroke-width:0.8;" x="336.272727" xlink:href="#mf3bdcbc47a" y="69.12"/>
      </g>
     </g>
    </g>
    <g id="xtick_5">
     <g id="line2d_9">
      <g>
       <use style="stroke:#000000;stroke-width:0.8;" x="412.363636" xlink:href="#m6138b0826c" y="504"/>
      </g>
     </g>
     <g id="line2d_10">
      <g>
       <use style="stroke:#000000;stroke-width:0.8;" x="412.363636" xlink:href="#mf3bdcbc47a" y="69.12"/>
      </g>
     </g>
    </g>
    <g id="xtick_6">
     <g id="line2d_11">
      <g>
       <use style="stroke:#000000;stroke-width:0.8;" x="488.454545" xlink:href="#m6138b0826c" y="504"/>
      </g>
     </g>
     <g id="line2d_12">
      <g>
       <use style="stroke:#000000;stroke-width:0.8;" x="488.454545" xlink:href="#mf3bdcbc47a" y="69.12"/>
      </g>
     </g>
    </g>
    <g id="xtick_7">
     <g id="line2d_13">
      <g>
       <use style="stroke:#000000;stroke-width:0.8;" x="564.545455" xlink:href="#m6138b0826c" y="504"/>
      </g>
     </g>
     <g id="line2d_14">
      <g>
       <use style="stroke:#000000;stroke-width:0.8;" x="564.545455" xlink:href="#mf3bdcbc47a" y="69.12"/>
      </g>
     </g>
    </g>
    <g id="xtick_8">
     <g id="line2d_15">
      <g>
       <use style="stroke:#000000;stroke-width:0.8;" x="640.636364" xlink:href="#m6138b0826c" y="504"/>
      </g>
     </g>
     <g id="line2d_16">
      <g>
       <use style="stroke:#000000;stroke-width:0.8;" x="640.636364" xlink:href="#mf3bdcbc47a" y="69.12"/>
      </g>
     </g>
    </g>
    <g id="xtick_9">
     <g id="line2d_17">
      <g>
       <use style="stroke:#000000;stroke-width:0.8;" x="716.727273" xlink:href="#m6138b0826c" y="504"/>
      </g>
     </g>
     <g id="line2d_18">
      <g>
       <use style="stroke:#000000;stroke-width:0.8;" x="716.727273" xlink:href="#mf3bdcbc47a" y="69.12"/>
      </g>
     </g>
    </g>
   </g>
   <g id="matplotlib.axis_2">
    <g id="ytick_1">
     <g id="line2d_19">
      <defs>
       <path d="M 0 0 
L -3.5 0 
" id="m52bfb3d712" style="stroke:#000000;stroke-width:0.8;"/>
      </defs>
      <g>
       <use style="stroke:#000000;stroke-width:0.8;" x="108" xlink:href="#m52bfb3d712" y="504"/>
      </g>
     </g>
     <g id="line2d_20">
      <defs>
       <path d="M 0 0 
L 3.5 0 
" id="m025f61623e" style="stroke:#000000;stroke-width:0.8;"/>
      </defs>
      <g>
       <use style="stroke:#000000;stroke-width:0.8;" x="777.6" xlink:href="#m025f61623e" y="504"/>
      </g>
     </g>
     <g id="text_1">
      <!-- 0.98 -->
      <g transform="translate(57.161563 510.838594)scale(0.18 -0.18)">
       <defs>
        <path d="M 2228 275 
Q 2603 275 2742 615 
Q 2881 956 2881 2328 
Q 2881 3691 2742 4037 
Q 2603 4384 2228 4384 
Q 1853 4384 1714 4043 
Q 1575 3703 1575 2328 
Q 1575 956 1714 615 
Q 1853 275 2228 275 
z
M 2228 -91 
Q 1294 -91 797 532 
Q 300 1156 300 2328 
Q 300 3500 797 4125 
Q 1294 4750 2228 4750 
Q 3159 4750 3656 4125 
Q 4153 3500 4153 2328 
Q 4153 1156 3656 532 
Q 3159 -91 2228 -91 
z
" id="DejaVuSerif-Bold-30" transform="scale(0.015625)"/>
        <path d="M 519 506 
Q 519 750 694 925 
Q 869 1100 1113 1100 
Q 1359 1100 1534 925 
Q 1709 750 1709 506 
Q 1709 259 1534 84 
Q 1359 -91 1113 -91 
Q 869 -91 694 84 
Q 519 259 519 506 
z
" id="DejaVuSerif-Bold-2e" transform="scale(0.015625)"/>
        <path d="M 2181 4384 
Q 1859 4384 1723 4111 
Q 1588 3838 1588 3163 
Q 1588 2488 1723 2214 
Q 1859 1941 2181 1941 
Q 2503 1941 2640 2214 
Q 2778 2488 2778 3163 
Q 2778 3838 2640 4111 
Q 2503 4384 2181 4384 
z
M 2878 1900 
Q 2672 1734 2420 1651 
Q 2169 1569 1875 1569 
Q 1163 1569 755 1986 
Q 347 2403 347 3138 
Q 347 3913 803 4331 
Q 1259 4750 2106 4750 
Q 3063 4750 3556 4172 
Q 4050 3594 4050 2478 
Q 4050 1206 3503 557 
Q 2956 -91 1881 -91 
Q 1600 -91 1278 -44 
Q 956 3 588 97 
L 588 922 
L 966 922 
Q 1044 603 1261 439 
Q 1478 275 1825 275 
Q 2375 275 2625 658 
Q 2875 1041 2878 1900 
z
" id="DejaVuSerif-Bold-39" transform="scale(0.015625)"/>
        <path d="M 2975 2484 
Q 3531 2394 3820 2075 
Q 4109 1756 4109 1241 
Q 4109 597 3623 253 
Q 3138 -91 2222 -91 
Q 1306 -91 818 253 
Q 331 597 331 1241 
Q 331 1756 622 2075 
Q 913 2394 1466 2484 
Q 975 2597 731 2861 
Q 488 3125 488 3531 
Q 488 4125 931 4437 
Q 1375 4750 2222 4750 
Q 3066 4750 3511 4437 
Q 3956 4125 3956 3531 
Q 3956 3125 3711 2861 
Q 3466 2597 2975 2484 
z
M 2747 3519 
Q 2747 4013 2628 4198 
Q 2509 4384 2222 4384 
Q 1931 4384 1814 4198 
Q 1697 4013 1697 3519 
Q 1697 3028 1814 2845 
Q 1931 2663 2222 2663 
Q 2513 2663 2630 2845 
Q 2747 3028 2747 3519 
z
M 2869 1294 
Q 2869 1866 2723 2081 
Q 2578 2297 2222 2297 
Q 1863 2297 1719 2081 
Q 1575 1866 1575 1294 
Q 1575 716 1720 495 
Q 1866 275 2222 275 
Q 2575 275 2722 495 
Q 2869 716 2869 1294 
z
" id="DejaVuSerif-Bold-38" transform="scale(0.015625)"/>
       </defs>
       <use xlink:href="#DejaVuSerif-Bold-30"/>
       <use x="69.580078" xlink:href="#DejaVuSerif-Bold-2e"/>
       <use x="104.394531" xlink:href="#DejaVuSerif-Bold-39"/>
       <use x="173.974609" xlink:href="#DejaVuSerif-Bold-38"/>
      </g>
     </g>
    </g>
    <g id="ytick_2">
     <g id="line2d_21">
      <g>
       <use style="stroke:#000000;stroke-width:0.8;" x="108" xlink:href="#m52bfb3d712" y="449.64"/>
      </g>
     </g>
     <g id="line2d_22">
      <g>
       <use style="stroke:#000000;stroke-width:0.8;" x="777.6" xlink:href="#m025f61623e" y="449.64"/>
      </g>
     </g>
     <g id="text_2">
      <!-- 0.99 -->
      <g transform="translate(57.161563 456.478594)scale(0.18 -0.18)">
       <use xlink:href="#DejaVuSerif-Bold-30"/>
       <use x="69.580078" xlink:href="#DejaVuSerif-Bold-2e"/>
       <use x="104.394531" xlink:href="#DejaVuSerif-Bold-39"/>
       <use x="173.974609" xlink:href="#DejaVuSerif-Bold-39"/>
      </g>
     </g>
    </g>
    <g id="ytick_3">
     <g id="line2d_23">
      <g>
       <use style="stroke:#000000;stroke-width:0.8;" x="108" xlink:href="#m52bfb3d712" y="395.28"/>
      </g>
     </g>
     <g id="line2d_24">
      <g>
       <use style="stroke:#000000;stroke-width:0.8;" x="777.6" xlink:href="#m025f61623e" y="395.28"/>
      </g>
     </g>
     <g id="text_3">
      <!-- 1.00 -->
      <g transform="translate(57.161563 402.118594)scale(0.18 -0.18)">
       <defs>
        <path d="M 878 0 
L 878 378 
L 1753 378 
L 1753 4153 
L 781 3578 
L 781 4044 
L 1953 4750 
L 2938 4750 
L 2938 378 
L 3816 378 
L 3816 0 
L 878 0 
z
" id="DejaVuSerif-Bold-31" transform="scale(0.015625)"/>
       </defs>
       <use xlink:href="#DejaVuSerif-Bold-31"/>
       <use x="69.580078" xlink:href="#DejaVuSerif-Bold-2e"/>
       <use x="104.394531" xlink:href="#DejaVuSerif-Bold-30"/>
       <use x="173.974609" xlink:href="#DejaVuSerif-Bold-30"/>
      </g>
     </g>
    </g>
    <g id="ytick_4">
     <g id="line2d_25">
      <g>
       <use style="stroke:#000000;stroke-width:0.8;" x="108" xlink:href="#m52bfb3d712" y="340.92"/>
      </g>
     </g>
     <g id="line2d_26">
      <g>
       <use style="stroke:#000000;stroke-width:0.8;" x="777.6" xlink:href="#m025f61623e" y="340.92"/>
      </g>
     </g>
     <g id="text_4">
      <!-- 1.01 -->
      <g transform="translate(57.161563 347.758594)scale(0.18 -0.18)">
       <use xlink:href="#DejaVuSerif-Bold-31"/>
       <use x="69.580078" xlink:href="#DejaVuSerif-Bold-2e"/>
       <use x="104.394531" xlink:href="#DejaVuSerif-Bold-30"/>
       <use x="173.974609" xlink:href="#DejaVuSerif-Bold-31"/>
      </g>
     </g>
    </g>
    <g id="ytick_5">
     <g id="line2d_27">
      <g>
       <use style="stroke:#000000;stroke-width:0.8;" x="108" xlink:href="#m52bfb3d712" y="286.56"/>
      </g>
     </g>
     <g id="line2d_28">
      <g>
       <use style="stroke:#000000;stroke-width:0.8;" x="777.6" xlink:href="#m025f61623e" y="286.56"/>
      </g>
     </g>
     <g id="text_5">
      <!-- 1.02 -->
      <g transform="translate(57.161563 293.398594)scale(0.18 -0.18)">
       <defs>
        <path d="M 844 3513 
L 469 3513 
L 469 4519 
Q 850 4634 1223 4692 
Q 1597 4750 1978 4750 
Q 2869 4750 3367 4386 
Q 3866 4022 3866 3372 
Q 3866 2909 3591 2542 
Q 3316 2175 2541 1672 
L 1241 819 
L 3450 819 
L 3450 1369 
L 3878 1369 
L 3878 0 
L 428 0 
L 428 763 
L 1119 1241 
Q 2003 1850 2297 2278 
Q 2591 2706 2591 3278 
Q 2591 3819 2367 4101 
Q 2144 4384 1716 4384 
Q 1347 4384 1125 4161 
Q 903 3938 844 3513 
z
" id="DejaVuSerif-Bold-32" transform="scale(0.015625)"/>
       </defs>
       <use xlink:href="#DejaVuSerif-Bold-31"/>
       <use x="69.580078" xlink:href="#DejaVuSerif-Bold-2e"/>
       <use x="104.394531" xlink:href="#DejaVuSerif-Bold-30"/>
       <use x="173.974609" xlink:href="#DejaVuSerif-Bold-32"/>
      </g>
     </g>
    </g>
    <g id="ytick_6">
     <g id="line2d_29">
      <g>
       <use style="stroke:#000000;stroke-width:0.8;" x="108" xlink:href="#m52bfb3d712" y="232.2"/>
      </g>
     </g>
     <g id="line2d_30">
      <g>
       <use style="stroke:#000000;stroke-width:0.8;" x="777.6" xlink:href="#m025f61623e" y="232.2"/>
      </g>
     </g>
     <g id="text_6">
      <!-- 1.03 -->
      <g transform="translate(57.161563 239.038594)scale(0.18 -0.18)">
       <defs>
        <path d="M 550 4531 
Q 963 4641 1350 4695 
Q 1738 4750 2106 4750 
Q 2950 4750 3401 4448 
Q 3853 4147 3853 3584 
Q 3853 3163 3593 2900 
Q 3334 2638 2834 2547 
Q 3444 2450 3744 2131 
Q 4044 1813 4044 1259 
Q 4044 606 3526 257 
Q 3009 -91 2028 -91 
Q 1659 -91 1267 -28 
Q 875 34 447 159 
L 447 1184 
L 825 1184 
Q 859 741 1103 508 
Q 1347 275 1778 275 
Q 2253 275 2512 539 
Q 2772 803 2772 1288 
Q 2772 1794 2501 2069 
Q 2231 2344 1734 2344 
L 1528 2344 
L 1528 2719 
L 1691 2719 
Q 2150 2719 2381 2931 
Q 2613 3144 2613 3566 
Q 2613 3963 2395 4173 
Q 2178 4384 1772 4384 
Q 1403 4384 1187 4182 
Q 972 3981 928 3597 
L 550 3597 
L 550 4531 
z
" id="DejaVuSerif-Bold-33" transform="scale(0.015625)"/>
       </defs>
       <use xlink:href="#DejaVuSerif-Bold-31"/>
       <use x="69.580078" xlink:href="#DejaVuSerif-Bold-2e"/>
       <use x="104.394531" xlink:href="#DejaVuSerif-Bold-30"/>
       <use x="173.974609" xlink:href="#DejaVuSerif-Bold-33"/>
      </g>
     </g>
    </g>
    <g id="ytick_7">
     <g id="line2d_31">
      <g>
       <use style="stroke:#000000;stroke-width:0.8;" x="108" xlink:href="#m52bfb3d712" y="177.84"/>
      </g>
     </g>
     <g id="line2d_32">
      <g>
       <use style="stroke:#000000;stroke-width:0.8;" x="777.6" xlink:href="#m025f61623e" y="177.84"/>
      </g>
     </g>
     <g id="text_7">
      <!-- 1.04 -->
      <g transform="translate(57.161563 184.678594)scale(0.18 -0.18)">
       <defs>
        <path d="M 4084 0 
L 1516 0 
L 1516 378 
L 2209 378 
L 2209 1228 
L 263 1228 
L 263 1588 
L 2216 4750 
L 3391 4750 
L 3391 1631 
L 4191 1631 
L 4191 1228 
L 3391 1228 
L 3391 378 
L 4084 378 
L 4084 0 
z
M 2209 1631 
L 2209 3897 
L 819 1631 
L 2209 1631 
z
" id="DejaVuSerif-Bold-34" transform="scale(0.015625)"/>
       </defs>
       <use xlink:href="#DejaVuSerif-Bold-31"/>
       <use x="69.580078" xlink:href="#DejaVuSerif-Bold-2e"/>
       <use x="104.394531" xlink:href="#DejaVuSerif-Bold-30"/>
       <use x="173.974609" xlink:href="#DejaVuSerif-Bold-34"/>
      </g>
     </g>
    </g>
    <g id="ytick_8">
     <g id="line2d_33">
      <g>
       <use style="stroke:#000000;stroke-width:0.8;" x="108" xlink:href="#m52bfb3d712" y="123.48"/>
      </g>
     </g>
     <g id="line2d_34">
      <g>
       <use style="stroke:#000000;stroke-width:0.8;" x="777.6" xlink:href="#m025f61623e" y="123.48"/>
      </g>
     </g>
     <g id="text_8">
      <!-- 1.05 -->
      <g transform="translate(57.161563 130.318594)scale(0.18 -0.18)">
       <defs>
        <path d="M 3609 4666 
L 3609 3847 
L 1113 3847 
L 1113 2822 
Q 1319 2981 1572 3062 
Q 1825 3144 2106 3144 
Q 2969 3144 3469 2708 
Q 3969 2272 3969 1522 
Q 3969 759 3469 334 
Q 2969 -91 2069 -91 
Q 1688 -91 1311 -28 
Q 934 34 525 166 
L 525 1184 
L 900 1184 
Q 919 725 1139 500 
Q 1359 275 1791 275 
Q 2250 275 2472 583 
Q 2694 891 2694 1522 
Q 2694 2144 2476 2451 
Q 2259 2759 1819 2759 
Q 1581 2759 1395 2661 
Q 1209 2563 1050 2356 
L 738 2356 
L 738 4666 
L 3609 4666 
z
" id="DejaVuSerif-Bold-35" transform="scale(0.015625)"/>
       </defs>
       <use xlink:href="#DejaVuSerif-Bold-31"/>
       <use x="69.580078" xlink:href="#DejaVuSerif-Bold-2e"/>
       <use x="104.394531" xlink:href="#DejaVuSerif-Bold-30"/>
       <use x="173.974609" xlink:href="#DejaVuSerif-Bold-35"/>
      </g>
     </g>
    </g>
    <g id="ytick_9">
     <g id="line2d_35">
      <g>
       <use style="stroke:#000000;stroke-width:0.8;" x="108" xlink:href="#m52bfb3d712" y="69.12"/>
      </g>
     </g>
     <g id="line2d_36">
      <g>
       <use style="stroke:#000000;stroke-width:0.8;" x="777.6" xlink:href="#m025f61623e" y="69.12"/>
      </g>
     </g>
     <g id="text_9">
      <!-- 1.06 -->
      <g transform="translate(57.161563 75.958594)scale(0.18 -0.18)">
       <defs>
        <path d="M 1575 2766 
Q 1778 2928 2029 3009 
Q 2281 3091 2578 3091 
Q 3294 3091 3701 2672 
Q 4109 2253 4109 1522 
Q 4109 750 3650 329 
Q 3191 -91 2344 -91 
Q 1388 -91 895 486 
Q 403 1063 403 2181 
Q 403 3453 950 4101 
Q 1497 4750 2572 4750 
Q 2853 4750 3175 4703 
Q 3497 4656 3866 4563 
L 3866 3738 
L 3488 3738 
Q 3409 4056 3192 4220 
Q 2975 4384 2631 4384 
Q 2075 4384 1826 4003 
Q 1578 3622 1575 2766 
z
M 2272 275 
Q 2594 275 2731 548 
Q 2869 822 2869 1497 
Q 2869 2172 2731 2445 
Q 2594 2719 2272 2719 
Q 1950 2719 1814 2445 
Q 1678 2172 1678 1497 
Q 1678 822 1814 548 
Q 1950 275 2272 275 
z
" id="DejaVuSerif-Bold-36" transform="scale(0.015625)"/>
       </defs>
       <use xlink:href="#DejaVuSerif-Bold-31"/>
       <use x="69.580078" xlink:href="#DejaVuSerif-Bold-2e"/>
       <use x="104.394531" xlink:href="#DejaVuSerif-Bold-30"/>
       <use x="173.974609" xlink:href="#DejaVuSerif-Bold-36"/>
      </g>
     </g>
    </g>
    <g id="text_10">
     <!-- Growth Factors -->
     <g transform="translate(48.58625 373.19875)rotate(-90)scale(0.22 -0.22)">
      <defs>
       <path d="M 4097 3272 
Q 3988 3856 3641 4136 
Q 3294 4416 2675 4416 
Q 1869 4416 1472 3897 
Q 1075 3378 1075 2328 
Q 1075 1300 1484 772 
Q 1894 244 2688 244 
Q 3041 244 3362 331 
Q 3684 419 3975 594 
L 3975 1797 
L 3097 1797 
L 3097 2131 
L 4609 2131 
L 4609 391 
Q 4194 150 3714 29 
Q 3234 -91 2688 -91 
Q 1631 -91 995 570 
Q 359 1231 359 2328 
Q 359 3434 996 4092 
Q 1634 4750 2713 4750 
Q 3113 4750 3539 4658 
Q 3966 4566 4447 4378 
L 4447 3272 
L 4097 3272 
z
" id="DejaVuSerif-47" transform="scale(0.015625)"/>
       <path d="M 3059 3328 
L 3059 2497 
L 2728 2497 
Q 2713 2744 2591 2866 
Q 2469 2988 2234 2988 
Q 1809 2988 1582 2694 
Q 1356 2400 1356 1850 
L 1356 331 
L 2022 331 
L 2022 0 
L 263 0 
L 263 331 
L 781 331 
L 781 2994 
L 231 2994 
L 231 3322 
L 1356 3322 
L 1356 2731 
Q 1525 3078 1790 3245 
Q 2056 3413 2438 3413 
Q 2578 3413 2733 3391 
Q 2888 3369 3059 3328 
z
" id="DejaVuSerif-72" transform="scale(0.015625)"/>
       <path d="M 1925 219 
Q 2388 219 2623 584 
Q 2859 950 2859 1663 
Q 2859 2375 2623 2739 
Q 2388 3103 1925 3103 
Q 1463 3103 1227 2739 
Q 991 2375 991 1663 
Q 991 950 1228 584 
Q 1466 219 1925 219 
z
M 1925 -91 
Q 1200 -91 759 389 
Q 319 869 319 1663 
Q 319 2456 758 2934 
Q 1197 3413 1925 3413 
Q 2653 3413 3092 2934 
Q 3531 2456 3531 1663 
Q 3531 869 3092 389 
Q 2653 -91 1925 -91 
z
" id="DejaVuSerif-6f" transform="scale(0.015625)"/>
       <path d="M 3072 3322 
L 3922 728 
L 4672 2988 
L 4191 2988 
L 4191 3322 
L 5394 3322 
L 5394 2988 
L 5025 2988 
L 4038 0 
L 3559 0 
L 2741 2484 
L 1919 0 
L 1459 0 
L 475 2988 
L 103 2988 
L 103 3322 
L 1606 3322 
L 1606 2988 
L 1069 2988 
L 1813 728 
L 2669 3322 
L 3072 3322 
z
" id="DejaVuSerif-77" transform="scale(0.015625)"/>
       <path d="M 691 2988 
L 184 2988 
L 184 3322 
L 691 3322 
L 691 4353 
L 1269 4353 
L 1269 3322 
L 2350 3322 
L 2350 2988 
L 1269 2988 
L 1269 878 
Q 1269 456 1350 337 
Q 1431 219 1650 219 
Q 1875 219 1978 351 
Q 2081 484 2088 781 
L 2522 781 
Q 2497 328 2275 118 
Q 2053 -91 1600 -91 
Q 1103 -91 897 129 
Q 691 350 691 878 
L 691 2988 
z
" id="DejaVuSerif-74" transform="scale(0.015625)"/>
       <path d="M 263 0 
L 263 331 
L 781 331 
L 781 4531 
L 231 4531 
L 231 4863 
L 1356 4863 
L 1356 2731 
Q 1516 3069 1770 3241 
Q 2025 3413 2363 3413 
Q 2913 3413 3172 3097 
Q 3431 2781 3431 2113 
L 3431 331 
L 3944 331 
L 3944 0 
L 2356 0 
L 2356 331 
L 2853 331 
L 2853 1931 
Q 2853 2541 2704 2764 
Q 2556 2988 2175 2988 
Q 1775 2988 1565 2697 
Q 1356 2406 1356 1850 
L 1356 331 
L 1856 331 
L 1856 0 
L 263 0 
z
" id="DejaVuSerif-68" transform="scale(0.015625)"/>
       <path id="DejaVuSerif-20" transform="scale(0.015625)"/>
       <path d="M 353 0 
L 353 331 
L 947 331 
L 947 4331 
L 353 4331 
L 353 4666 
L 4172 4666 
L 4172 3628 
L 3788 3628 
L 3788 4281 
L 1581 4281 
L 1581 2719 
L 3175 2719 
L 3175 3303 
L 3559 3303 
L 3559 1753 
L 3175 1753 
L 3175 2338 
L 1581 2338 
L 1581 331 
L 2328 331 
L 2328 0 
L 353 0 
z
" id="DejaVuSerif-46" transform="scale(0.015625)"/>
       <path d="M 2547 1044 
L 2547 1747 
L 1806 1747 
Q 1378 1747 1168 1562 
Q 959 1378 959 997 
Q 959 650 1171 447 
Q 1384 244 1747 244 
Q 2106 244 2326 466 
Q 2547 688 2547 1044 
z
M 3122 2075 
L 3122 331 
L 3634 331 
L 3634 0 
L 2547 0 
L 2547 359 
Q 2356 128 2106 18 
Q 1856 -91 1522 -91 
Q 969 -91 644 203 
Q 319 497 319 997 
Q 319 1513 691 1797 
Q 1063 2081 1741 2081 
L 2547 2081 
L 2547 2309 
Q 2547 2688 2317 2895 
Q 2088 3103 1672 3103 
Q 1328 3103 1125 2947 
Q 922 2791 872 2484 
L 575 2484 
L 575 3156 
Q 875 3284 1158 3348 
Q 1441 3413 1709 3413 
Q 2400 3413 2761 3070 
Q 3122 2728 3122 2075 
z
" id="DejaVuSerif-61" transform="scale(0.015625)"/>
       <path d="M 3291 997 
Q 3169 466 2822 187 
Q 2475 -91 1925 -91 
Q 1200 -91 759 389 
Q 319 869 319 1663 
Q 319 2459 759 2936 
Q 1200 3413 1925 3413 
Q 2241 3413 2553 3339 
Q 2866 3266 3181 3116 
L 3181 2266 
L 2847 2266 
Q 2781 2703 2561 2903 
Q 2341 3103 1931 3103 
Q 1466 3103 1228 2742 
Q 991 2381 991 1663 
Q 991 944 1227 581 
Q 1463 219 1931 219 
Q 2303 219 2525 412 
Q 2747 606 2828 997 
L 3291 997 
z
" id="DejaVuSerif-63" transform="scale(0.015625)"/>
       <path d="M 359 184 
L 359 959 
L 691 959 
Q 703 588 923 403 
Q 1144 219 1575 219 
Q 1963 219 2166 364 
Q 2369 509 2369 788 
Q 2369 1006 2220 1140 
Q 2072 1275 1594 1428 
L 1178 1569 
Q 750 1706 558 1912 
Q 366 2119 366 2438 
Q 366 2894 700 3153 
Q 1034 3413 1625 3413 
Q 1888 3413 2178 3344 
Q 2469 3275 2778 3144 
L 2778 2419 
L 2447 2419 
Q 2434 2741 2221 2922 
Q 2009 3103 1644 3103 
Q 1281 3103 1095 2975 
Q 909 2847 909 2591 
Q 909 2381 1050 2254 
Q 1191 2128 1613 1997 
L 2069 1856 
Q 2541 1709 2748 1489 
Q 2956 1269 2956 922 
Q 2956 450 2595 179 
Q 2234 -91 1600 -91 
Q 1278 -91 972 -22 
Q 666 47 359 184 
z
" id="DejaVuSerif-73" transform="scale(0.015625)"/>
      </defs>
      <use xlink:href="#DejaVuSerif-47"/>
      <use x="79.882812" xlink:href="#DejaVuSerif-72"/>
      <use x="127.685547" xlink:href="#DejaVuSerif-6f"/>
      <use x="187.890625" xlink:href="#DejaVuSerif-77"/>
      <use x="273.486328" xlink:href="#DejaVuSerif-74"/>
      <use x="313.671875" xlink:href="#DejaVuSerif-68"/>
      <use x="378.076172" xlink:href="#DejaVuSerif-20"/>
      <use x="409.863281" xlink:href="#DejaVuSerif-46"/>
      <use x="472.498047" xlink:href="#DejaVuSerif-61"/>
      <use x="532.117188" xlink:href="#DejaVuSerif-63"/>
      <use x="588.123047" xlink:href="#DejaVuSerif-74"/>
      <use x="628.308594" xlink:href="#DejaVuSerif-6f"/>
      <use x="688.513672" xlink:href="#DejaVuSerif-72"/>
      <use x="736.316406" xlink:href="#DejaVuSerif-73"/>
     </g>
    </g>
   </g>
   <g id="line2d_37">
    <path clip-path="url(#p11bfa9b7c1)" d="M -1 371.41399 
L 640.636364 371.41399 
" style="fill:none;stroke:#0000ff;stroke-linecap:square;stroke-width:1.5;"/>
   </g>
   <g id="line2d_38">
    <path clip-path="url(#p11bfa9b7c1)" d="M -1 232.2 
L 640.636364 232.2 
" style="fill:none;stroke:#000000;stroke-linecap:square;stroke-width:1.5;"/>
   </g>
   <g id="line2d_39">
    <path clip-path="url(#p11bfa9b7c1)" d="M 101.677596 -1 
L 105.323435 6.959828 
L 111.441297 19.799691 
L 117.559159 32.056614 
L 123.677021 43.756131 
L 129.794884 54.921441 
L 135.912746 65.576728 
L 142.030608 75.744544 
L 148.14847 85.447527 
L 154.266332 94.704276 
L 160.384194 103.538897 
L 166.502056 111.969934 
L 172.619918 120.017191 
L 178.73778 127.698793 
L 184.855642 135.033046 
L 190.973504 142.035364 
L 197.091366 148.723919 
L 203.209228 155.111571 
L 209.32709 161.21528 
L 215.444952 167.046879 
L 221.562814 172.621609 
L 227.680676 177.950752 
L 233.798538 183.047807 
L 239.9164 187.922226 
L 246.034262 192.586168 
L 252.152124 197.050238 
L 258.269986 201.323184 
L 267.446779 207.394543 
L 276.623572 213.090844 
L 285.800365 218.428899 
L 294.977159 223.443078 
L 304.153952 228.155341 
L 313.330745 232.582857 
L 322.507538 236.746343 
L 331.684331 240.666134 
L 340.861124 244.358579 
L 350.037917 247.838195 
L 359.21471 251.11906 
L 368.391503 254.21461 
L 380.627227 258.076246 
L 392.862951 261.653327 
L 405.098675 264.973437 
L 417.334399 268.057534 
L 429.570123 270.925117 
L 441.805847 273.592989 
L 457.100503 276.671379 
L 472.395158 279.49102 
L 487.689813 282.076209 
L 502.984468 284.449548 
L 521.338054 287.041652 
L 539.69164 289.38607 
L 558.045226 291.508576 
L 576.398812 293.430716 
L 597.811329 295.445866 
L 619.223847 297.244484 
L 640.636364 298.849457 
L 640.636364 298.849457 
" style="fill:none;stroke:#0000ff;stroke-linecap:square;stroke-width:1.5;"/>
   </g>
   <g id="line2d_40">
    <path clip-path="url(#p11bfa9b7c1)" d="M 215.237159 -1 
L 218.503883 5.879103 
L 224.621745 18.484487 
L 233.798538 36.754325 
L 242.975331 54.297786 
L 252.152124 71.147886 
L 261.328917 87.341875 
L 270.50571 102.912454 
L 279.682503 117.887944 
L 288.859296 132.301197 
L 298.03609 146.177934 
L 307.212883 159.542136 
L 316.389676 172.420553 
L 325.566469 184.835978 
L 334.743262 196.809713 
L 343.920055 208.361665 
L 353.096848 219.510516 
L 362.273641 230.274951 
L 371.450434 240.672188 
L 380.627227 250.718601 
L 389.80402 260.428537 
L 398.980813 269.816931 
L 408.157606 278.897489 
L 417.334399 287.683564 
L 426.511192 296.187514 
L 435.687985 304.420023 
L 444.864778 312.39159 
L 454.041571 320.114478 
L 463.218365 327.597391 
L 472.395158 334.849325 
L 481.571951 341.88072 
L 490.748744 348.697846 
L 502.984468 357.471573 
L 515.220192 365.897054 
L 527.455916 373.994565 
L 539.69164 381.77685 
L 551.927364 389.260996 
L 564.163088 396.46071 
L 576.398812 403.387547 
L 588.634536 410.054855 
L 600.87026 416.474278 
L 613.105984 422.65673 
L 625.341709 428.612273 
L 637.577433 434.350827 
L 640.636364 435.752613 
L 640.636364 435.752613 
" style="fill:none;stroke:#ff0000;stroke-linecap:square;stroke-width:1.5;"/>
   </g>
   <g id="line2d_41">
    <path clip-path="url(#p11bfa9b7c1)" d="M 149.109629 -1 
L 154.266332 13.210194 
L 160.384194 29.592557 
L 166.502056 45.493077 
L 172.619918 60.929023 
L 178.73778 75.916426 
L 184.855642 90.471346 
L 190.973504 104.608485 
L 197.091366 118.343561 
L 203.209228 131.689232 
L 209.32709 144.660645 
L 215.444952 157.269605 
L 221.562814 169.529938 
L 227.680676 181.452669 
L 233.798538 193.050624 
L 242.975331 209.862332 
L 252.152124 226.001677 
L 261.328917 241.504966 
L 270.50571 256.404054 
L 279.682503 270.726513 
L 288.859296 284.504357 
L 298.03609 297.762624 
L 307.212883 310.52465 
L 316.389676 322.816491 
L 325.566469 334.660329 
L 334.743262 346.076891 
L 343.920055 357.085546 
L 353.096848 367.70446 
L 362.273641 377.951813 
L 371.450434 387.844349 
L 380.627227 397.397987 
L 389.80402 406.626669 
L 398.980813 415.544914 
L 408.157606 424.166039 
L 417.334399 432.503022 
L 426.511192 440.567866 
L 435.687985 448.37094 
L 444.864778 455.922432 
L 454.041571 463.234265 
L 463.218365 470.314874 
L 472.395158 477.172986 
L 481.571951 483.818743 
L 493.807675 492.360592 
L 506.043399 500.5576 
L 518.279123 508.424174 
L 530.514847 515.978931 
L 542.750571 523.234449 
L 554.986295 530.207022 
L 567.222019 536.909488 
L 579.457743 543.352801 
L 591.693467 549.550057 
L 603.929191 555.512199 
L 616.164915 561.249545 
L 628.40064 566.771739 
L 640.636364 572.088234 
L 640.636364 572.088234 
" style="fill:none;stroke:#008000;stroke-linecap:square;stroke-width:1.5;"/>
   </g>
   <g id="line2d_42">
    <path clip-path="url(#p11bfa9b7c1)" d="M 363.949454 232.2 
" style="fill:none;stroke:#000000;stroke-linecap:square;stroke-width:1.5;"/>
    <defs>
     <path d="M 0 3 
C 0.795609 3 1.55874 2.683901 2.12132 2.12132 
C 2.683901 1.55874 3 0.795609 3 0 
C 3 -0.795609 2.683901 -1.55874 2.12132 -2.12132 
C 1.55874 -2.683901 0.795609 -3 0 -3 
C -0.795609 -3 -1.55874 -2.683901 -2.12132 -2.12132 
C -2.683901 -1.55874 -3 -0.795609 -3 0 
C -3 0.795609 -2.683901 1.55874 -2.12132 2.12132 
C -1.55874 2.683901 -0.795609 3 0 3 
z
" id="m907cead272" style="stroke:#000000;"/>
    </defs>
    <g clip-path="url(#p11bfa9b7c1)">
     <use style="stroke:#000000;" x="363.949454" xlink:href="#m907cead272" y="232.2"/>
    </g>
   </g>
   <g id="line2d_43">
    <path clip-path="url(#p11bfa9b7c1)" d="M 378.565553 395.28 
" style="fill:none;stroke:#000000;stroke-linecap:square;stroke-width:1.5;"/>
    <g clip-path="url(#p11bfa9b7c1)">
     <use style="stroke:#000000;" x="378.565553" xlink:href="#m907cead272" y="395.28"/>
    </g>
   </g>
   <g id="line2d_44">
    <path clip-path="url(#p11bfa9b7c1)" d="M 378.565553 504 
L 378.565553 69.12 
" style="fill:none;stroke:#1f77b4;stroke-dasharray:1.5,2.475;stroke-dashoffset:0;stroke-width:1.5;"/>
   </g>
   <g id="patch_3">
    <path d="M 108 504 
L 108 69.12 
" style="fill:none;stroke:#000000;stroke-linecap:square;stroke-linejoin:miter;stroke-width:0.8;"/>
   </g>
   <g id="patch_4">
    <path d="M 777.6 504 
L 777.6 69.12 
" style="fill:none;stroke:#000000;stroke-linecap:square;stroke-linejoin:miter;stroke-width:0.8;"/>
   </g>
   <g id="patch_5">
    <path d="M 108 504 
L 777.6 504 
" style="fill:none;stroke:#000000;stroke-linecap:square;stroke-linejoin:miter;stroke-width:0.8;"/>
   </g>
   <g id="patch_6">
    <path d="M 108 69.12 
L 777.6 69.12 
" style="fill:none;stroke:#000000;stroke-linecap:square;stroke-linejoin:miter;stroke-width:0.8;"/>
   </g>
   <g id="text_11">
    <!-- $\mathsf{E}_{t}[m_{t+1}/m_{t}]:~ \hat{m} \rightarrow~~$ -->
    <g transform="translate(136.216463 400.716)scale(0.22 -0.22)">
     <defs>
      <path d="M 588 4666 
L 3834 4666 
L 3834 3756 
L 1791 3756 
L 1791 2888 
L 3713 2888 
L 3713 1978 
L 1791 1978 
L 1791 909 
L 3903 909 
L 3903 0 
L 588 0 
L 588 4666 
z
" id="DejaVuSans-Bold-45" transform="scale(0.015625)"/>
      <path d="M 2303 4494 
L 2113 3500 
L 3256 3500 
L 3097 2700 
L 1953 2700 
L 1666 1219 
Q 1653 1169 1648 1134 
Q 1644 1100 1644 1069 
Q 1644 925 1739 862 
Q 1834 800 2059 800 
L 2638 800 
L 2478 0 
L 1538 0 
Q 1031 0 765 212 
Q 500 425 500 825 
Q 500 913 509 1013 
Q 519 1113 538 1216 
L 825 2700 
L 275 2700 
L 428 3500 
L 984 3500 
L 1178 4494 
L 2303 4494 
z
" id="DejaVuSans-BoldOblique-74" transform="scale(0.015625)"/>
      <path d="M 550 4863 
L 2491 4863 
L 2491 4159 
L 1613 4159 
L 1613 -141 
L 2491 -141 
L 2491 -844 
L 550 -844 
L 550 4863 
z
" id="DejaVuSans-Bold-5b" transform="scale(0.015625)"/>
      <path d="M 4013 2919 
Q 4272 3241 4601 3412 
Q 4931 3584 5288 3584 
Q 5756 3584 6026 3326 
Q 6297 3069 6297 2619 
Q 6297 2525 6283 2404 
Q 6269 2284 6241 2131 
L 5825 0 
L 4697 0 
L 5050 1825 
L 5059 1872 
Q 5141 2259 5141 2369 
Q 5141 2541 5042 2641 
Q 4944 2741 4775 2741 
Q 4453 2741 4229 2477 
Q 4006 2213 3909 1722 
L 3572 0 
L 2444 0 
L 2803 1825 
Q 2850 2059 2869 2179 
Q 2888 2300 2888 2369 
Q 2888 2544 2791 2642 
Q 2694 2741 2522 2741 
Q 2213 2741 1980 2467 
Q 1747 2194 1656 1722 
L 1319 0 
L 197 0 
L 878 3500 
L 2003 3500 
L 1900 2988 
Q 2163 3284 2459 3434 
Q 2756 3584 3078 3584 
Q 3441 3584 3700 3398 
Q 3959 3213 4013 2919 
z
" id="DejaVuSans-BoldOblique-6d" transform="scale(0.015625)"/>
      <path d="M 3053 4013 
L 3053 2375 
L 4684 2375 
L 4684 1638 
L 3053 1638 
L 3053 0 
L 2309 0 
L 2309 1638 
L 678 1638 
L 678 2375 
L 2309 2375 
L 2309 4013 
L 3053 4013 
z
" id="DejaVuSans-Bold-2b" transform="scale(0.015625)"/>
      <path d="M 750 831 
L 1813 831 
L 1813 3847 
L 722 3622 
L 722 4441 
L 1806 4666 
L 2950 4666 
L 2950 831 
L 4013 831 
L 4013 0 
L 750 0 
L 750 831 
z
" id="DejaVuSans-Bold-31" transform="scale(0.015625)"/>
      <path d="M 1644 4666 
L 2338 4666 
L 691 -594 
L 0 -594 
L 1644 4666 
z
" id="DejaVuSans-Bold-2f" transform="scale(0.015625)"/>
      <path d="M 2375 -844 
L 434 -844 
L 434 -141 
L 1313 -141 
L 1313 4159 
L 434 4159 
L 434 4863 
L 2375 4863 
L 2375 -844 
z
" id="DejaVuSans-Bold-5d" transform="scale(0.015625)"/>
      <path d="M 716 3500 
L 1844 3500 
L 1844 2291 
L 716 2291 
L 716 3500 
z
M 716 1209 
L 1844 1209 
L 1844 0 
L 716 0 
L 716 1209 
z
" id="DejaVuSans-Bold-3a" transform="scale(0.015625)"/>
      <path d="M -1986 5119 
L -1230 5119 
L -430 3944 
L -986 3944 
L -1608 4647 
L -2230 3944 
L -2786 3944 
L -1986 5119 
z
" id="DejaVuSans-Bold-302" transform="scale(0.015625)"/>
      <path d="M 5050 2225 
L 5050 1788 
L 3822 559 
L 3369 1013 
L 3988 1631 
L 366 1631 
L 366 2381 
L 3988 2381 
L 3369 3000 
L 3822 3453 
L 5050 2225 
z
" id="DejaVuSans-Bold-2192" transform="scale(0.015625)"/>
     </defs>
     <use transform="translate(0 0.140625)" xlink:href="#DejaVuSans-Bold-45"/>
     <use transform="translate(69.267578 -16.265625)scale(0.7)" xlink:href="#DejaVuSans-BoldOblique-74"/>
     <use transform="translate(105.463867 0.140625)" xlink:href="#DejaVuSans-Bold-5b"/>
     <use transform="translate(151.166992 0.140625)" xlink:href="#DejaVuSans-BoldOblique-6d"/>
     <use transform="translate(255.366211 -16.265625)scale(0.7)" xlink:href="#DejaVuSans-BoldOblique-74"/>
     <use transform="translate(303.416016 -16.265625)scale(0.7)" xlink:href="#DejaVuSans-Bold-2b"/>
     <use transform="translate(376.65625 -16.265625)scale(0.7)" xlink:href="#DejaVuSans-Bold-31"/>
     <use transform="translate(428.09668 0.140625)" xlink:href="#DejaVuSans-Bold-2f"/>
     <use transform="translate(464.620117 0.140625)" xlink:href="#DejaVuSans-BoldOblique-6d"/>
     <use transform="translate(568.819336 -16.265625)scale(0.7)" xlink:href="#DejaVuSans-BoldOblique-74"/>
     <use transform="translate(605.015625 0.140625)" xlink:href="#DejaVuSans-Bold-5d"/>
     <use transform="translate(671.558594 0.140625)" xlink:href="#DejaVuSans-Bold-3a"/>
     <use transform="translate(857.702452 7.015625)" xlink:href="#DejaVuSans-Bold-302"/>
     <use transform="translate(767.121397 0.140625)" xlink:href="#DejaVuSans-BoldOblique-6d"/>
     <use transform="translate(892.16046 0.140625)" xlink:href="#DejaVuSans-Bold-2192"/>
    </g>
   </g>
   <g id="text_12">
    <!-- $\Gamma$ -->
    <g transform="translate(648.245455 237.636)scale(0.22 -0.22)">
     <defs>
      <path d="M 588 0 
L 588 4666 
L 3903 4666 
L 3903 3756 
L 1791 3756 
L 1791 0 
L 588 0 
z
" id="DejaVuSans-Bold-393" transform="scale(0.015625)"/>
     </defs>
     <use transform="translate(0 0.09375)" xlink:href="#DejaVuSans-Bold-393"/>
    </g>
   </g>
   <g id="text_13">
    <!-- $\mathsf{E}_{t}[\mathbf{c}_{t+1}/\mathbf{c}_{t}]$ -->
    <g transform="translate(648.245455 298.849457)scale(0.22 -0.22)">
     <defs>
      <path d="M 3366 3391 
L 3366 2478 
Q 3138 2634 2908 2709 
Q 2678 2784 2431 2784 
Q 1963 2784 1702 2511 
Q 1441 2238 1441 1747 
Q 1441 1256 1702 982 
Q 1963 709 2431 709 
Q 2694 709 2930 787 
Q 3166 866 3366 1019 
L 3366 103 
Q 3103 6 2833 -42 
Q 2563 -91 2291 -91 
Q 1344 -91 809 395 
Q 275 881 275 1747 
Q 275 2613 809 3098 
Q 1344 3584 2291 3584 
Q 2566 3584 2833 3536 
Q 3100 3488 3366 3391 
z
" id="DejaVuSans-Bold-63" transform="scale(0.015625)"/>
     </defs>
     <use transform="translate(0 0.015625)" xlink:href="#DejaVuSans-Bold-45"/>
     <use transform="translate(69.267578 -16.390625)scale(0.7)" xlink:href="#DejaVuSans-BoldOblique-74"/>
     <use transform="translate(105.463867 0.015625)" xlink:href="#DejaVuSans-Bold-5b"/>
     <use transform="translate(151.166992 0.015625)" xlink:href="#DejaVuSans-Bold-63"/>
     <use transform="translate(211.401367 -16.390625)scale(0.7)" xlink:href="#DejaVuSans-BoldOblique-74"/>
     <use transform="translate(259.451172 -16.390625)scale(0.7)" xlink:href="#DejaVuSans-Bold-2b"/>
     <use transform="translate(332.691406 -16.390625)scale(0.7)" xlink:href="#DejaVuSans-Bold-31"/>
     <use transform="translate(384.131836 0.015625)" xlink:href="#DejaVuSans-Bold-2f"/>
     <use transform="translate(420.655273 0.015625)" xlink:href="#DejaVuSans-Bold-63"/>
     <use transform="translate(480.889648 -16.390625)scale(0.7)" xlink:href="#DejaVuSans-BoldOblique-74"/>
     <use transform="translate(517.085938 0.015625)" xlink:href="#DejaVuSans-Bold-5d"/>
    </g>
   </g>
   <g id="text_14">
    <!-- Þ$= (\mathsf{R}\beta)^{1/\rho}$ -->
    <g transform="translate(648.245455 376.84999)scale(0.22 -0.22)">
     <defs>
      <path d="M 300 0 
L 300 378 
L 897 378 
L 897 4288 
L 300 4288 
L 300 4666 
L 2847 4666 
L 2847 4288 
L 2100 4288 
L 2100 3756 
L 2956 3756 
Q 3734 3756 4193 3386 
Q 4653 3016 4653 2394 
Q 4653 1772 4192 1398 
Q 3731 1025 2956 1025 
L 2100 1025 
L 2100 378 
L 2853 378 
L 2853 0 
L 300 0 
z
M 2100 1403 
L 2450 1403 
Q 2856 1403 3098 1672 
Q 3341 1941 3341 2394 
Q 3341 2844 3100 3111 
Q 2859 3378 2450 3378 
L 2100 3378 
L 2100 1403 
z
" id="DejaVuSerif-Bold-de" transform="scale(0.015625)"/>
      <path d="M 678 3084 
L 4684 3084 
L 4684 2350 
L 678 2350 
L 678 3084 
z
M 678 1663 
L 4684 1663 
L 4684 922 
L 678 922 
L 678 1663 
z
" id="DejaVuSans-Bold-3d" transform="scale(0.015625)"/>
      <path d="M 2413 -844 
L 1484 -844 
Q 1006 -72 778 623 
Q 550 1319 550 2003 
Q 550 2688 779 3389 
Q 1009 4091 1484 4856 
L 2413 4856 
Q 2013 4116 1813 3408 
Q 1613 2700 1613 2009 
Q 1613 1319 1811 609 
Q 2009 -100 2413 -844 
z
" id="DejaVuSans-Bold-28" transform="scale(0.015625)"/>
      <path d="M 2297 2597 
Q 2675 2597 2839 2737 
Q 3003 2878 3003 3200 
Q 3003 3519 2839 3656 
Q 2675 3794 2297 3794 
L 1791 3794 
L 1791 2597 
L 2297 2597 
z
M 1791 1766 
L 1791 0 
L 588 0 
L 588 4666 
L 2425 4666 
Q 3347 4666 3776 4356 
Q 4206 4047 4206 3378 
Q 4206 2916 3982 2619 
Q 3759 2322 3309 2181 
Q 3556 2125 3751 1926 
Q 3947 1728 4147 1325 
L 4800 0 
L 3519 0 
L 2950 1159 
Q 2778 1509 2601 1637 
Q 2425 1766 2131 1766 
L 1791 1766 
z
" id="DejaVuSans-Bold-52" transform="scale(0.015625)"/>
      <path d="M 3119 3691 
Q 3119 4128 2691 4128 
Q 2350 4128 2178 3866 
Q 2003 3600 1909 3103 
L 1644 1747 
Q 1606 1544 1606 1344 
Q 1606 1144 1688 988 
Q 1828 722 2188 722 
Q 2588 722 2784 934 
Q 2978 1147 3003 1275 
Q 3022 1372 3022 1459 
Q 3022 1778 2772 1988 
Q 2600 2122 2050 2134 
L 2191 2847 
Q 2716 2925 2813 3038 
Q 3063 3309 3100 3503 
Q 3119 3603 3119 3691 
z
M -72 -1331 
L 778 3044 
Q 947 3922 1466 4369 
Q 1897 4741 2259 4844 
Q 2625 4950 2863 4950 
L 3147 4941 
Q 3766 4841 4050 4438 
Q 4175 4259 4175 4031 
Q 4175 3803 4134 3600 
Q 4078 3313 3831 3025 
Q 3588 2734 3269 2709 
Q 3706 2584 3966 2300 
Q 4222 2019 4222 1588 
Q 4222 850 3613 319 
Q 3141 -91 2441 -91 
Q 1738 -91 1403 506 
L 1047 -1331 
L -72 -1331 
z
" id="DejaVuSans-BoldOblique-3b2" transform="scale(0.015625)"/>
      <path d="M 513 -844 
Q 913 -100 1113 609 
Q 1313 1319 1313 2009 
Q 1313 2700 1113 3408 
Q 913 4116 513 4856 
L 1441 4856 
Q 1916 4091 2145 3389 
Q 2375 2688 2375 2003 
Q 2375 1319 2147 623 
Q 1919 -72 1441 -844 
L 513 -844 
z
" id="DejaVuSans-Bold-29" transform="scale(0.015625)"/>
      <path d="M 3741 425 
Q 3225 -91 2547 -91 
Q 1869 -91 1534 506 
L 1178 -1331 
L 59 -1331 
L 647 1688 
Q 816 2566 1344 2991 
Q 1869 3413 2275 3503 
Q 2681 3594 2928 3594 
Q 3178 3594 3294 3584 
Q 3894 3538 4256 3069 
Q 4472 2781 4472 2300 
Q 4472 2050 4413 1747 
Q 4256 938 3741 425 
z
M 3297 2119 
Q 3297 2772 2719 2772 
Q 2359 2772 2116 2506 
Q 1872 2244 1775 1747 
Q 1738 1544 1738 1344 
Q 1738 1144 1819 988 
Q 1963 722 2322 722 
Q 2681 722 2919 984 
Q 3159 1247 3256 1747 
Q 3297 1953 3297 2119 
z
" id="DejaVuSans-BoldOblique-3c1" transform="scale(0.015625)"/>
     </defs>
     <use transform="translate(0 0.684375)" xlink:href="#DejaVuSerif-Bold-de"/>
     <use transform="translate(96.523438 0.684375)" xlink:href="#DejaVuSans-Bold-3d"/>
     <use transform="translate(201.152344 0.684375)" xlink:href="#DejaVuSans-Bold-28"/>
     <use transform="translate(246.855469 0.684375)" xlink:href="#DejaVuSans-Bold-52"/>
     <use transform="translate(323.857422 0.684375)" xlink:href="#DejaVuSans-BoldOblique-3b2"/>
     <use transform="translate(395.439453 0.684375)" xlink:href="#DejaVuSans-Bold-29"/>
     <use transform="translate(442.099609 38.965625)scale(0.7)" xlink:href="#DejaVuSans-Bold-31"/>
     <use transform="translate(490.805664 38.965625)scale(0.7)" xlink:href="#DejaVuSans-Bold-2f"/>
     <use transform="translate(516.37207 38.965625)scale(0.7)" xlink:href="#DejaVuSans-BoldOblique-3c1"/>
    </g>
   </g>
   <g id="text_15">
    <!-- $m\check_{\searrow}$ -->
    <g transform="translate(318.294909 222.188688)scale(0.22 -0.22)">
     <defs>
      <path d="M -1986 3944 
L -2786 5119 
L -2230 5119 
L -1608 4409 
L -986 5119 
L -430 5119 
L -1230 3944 
L -1986 3944 
z
" id="DejaVuSans-Bold-30c" transform="scale(0.015625)"/>
      <path d="M 4606 734 
L 4297 425 
L 2559 425 
L 2559 1066 
L 3434 1066 
L 872 3628 
L 1403 4159 
L 3966 1597 
L 3966 2472 
L 4606 2472 
L 4606 734 
z
" id="DejaVuSans-Bold-2198" transform="scale(0.015625)"/>
     </defs>
     <use transform="translate(0 0.015625)" xlink:href="#DejaVuSans-BoldOblique-6d"/>
     <use transform="translate(104.199219 0.015625)" xlink:href="#DejaVuSans-Bold-30c"/>
     <use transform="translate(119.744141 -16.390625)scale(0.7)" xlink:href="#DejaVuSans-Bold-2198"/>
    </g>
   </g>
   <g id="text_16">
    <!-- $\mathsf{E}_{t}[m_{t+1}/m_{t}]^{\nearrow}$ -->
    <g transform="translate(118.891218 297.854374)scale(0.22 -0.22)">
     <defs>
      <path d="M 4297 4159 
L 4606 3850 
L 4606 2113 
L 3966 2113 
L 3966 2988 
L 1403 425 
L 872 956 
L 3434 3519 
L 2559 3519 
L 2559 4159 
L 4297 4159 
z
" id="DejaVuSans-Bold-2197" transform="scale(0.015625)"/>
     </defs>
     <use transform="translate(0 0.229688)" xlink:href="#DejaVuSans-Bold-45"/>
     <use transform="translate(69.267578 -16.176562)scale(0.7)" xlink:href="#DejaVuSans-BoldOblique-74"/>
     <use transform="translate(105.463867 0.229688)" xlink:href="#DejaVuSans-Bold-5b"/>
     <use transform="translate(151.166992 0.229688)" xlink:href="#DejaVuSans-BoldOblique-6d"/>
     <use transform="translate(255.366211 -16.176562)scale(0.7)" xlink:href="#DejaVuSans-BoldOblique-74"/>
     <use transform="translate(303.416016 -16.176562)scale(0.7)" xlink:href="#DejaVuSans-Bold-2b"/>
     <use transform="translate(376.65625 -16.176562)scale(0.7)" xlink:href="#DejaVuSans-Bold-31"/>
     <use transform="translate(428.09668 0.229688)" xlink:href="#DejaVuSans-Bold-2f"/>
     <use transform="translate(464.620117 0.229688)" xlink:href="#DejaVuSans-BoldOblique-6d"/>
     <use transform="translate(568.819336 -16.176562)scale(0.7)" xlink:href="#DejaVuSans-BoldOblique-74"/>
     <use transform="translate(605.015625 0.229688)" xlink:href="#DejaVuSans-Bold-5d"/>
     <use transform="translate(666.263672 38.510938)scale(0.7)" xlink:href="#DejaVuSans-Bold-2197"/>
    </g>
   </g>
   <g id="text_17">
    <!-- $\mathsf{E}_{t}[\mathbf{m}_{t+1}/\mathbf{m}_{t}]$ -->
    <g transform="translate(648.245455 447.033175)scale(0.22 -0.22)">
     <defs>
      <path d="M 3781 2919 
Q 3994 3244 4286 3414 
Q 4578 3584 4928 3584 
Q 5531 3584 5847 3212 
Q 6163 2841 6163 2131 
L 6163 0 
L 5038 0 
L 5038 1825 
Q 5041 1866 5042 1909 
Q 5044 1953 5044 2034 
Q 5044 2406 4934 2573 
Q 4825 2741 4581 2741 
Q 4263 2741 4089 2478 
Q 3916 2216 3909 1719 
L 3909 0 
L 2784 0 
L 2784 1825 
Q 2784 2406 2684 2573 
Q 2584 2741 2328 2741 
Q 2006 2741 1831 2477 
Q 1656 2213 1656 1722 
L 1656 0 
L 531 0 
L 531 3500 
L 1656 3500 
L 1656 2988 
Q 1863 3284 2130 3434 
Q 2397 3584 2719 3584 
Q 3081 3584 3359 3409 
Q 3638 3234 3781 2919 
z
" id="DejaVuSans-Bold-6d" transform="scale(0.015625)"/>
     </defs>
     <use transform="translate(0 0.015625)" xlink:href="#DejaVuSans-Bold-45"/>
     <use transform="translate(69.267578 -16.390625)scale(0.7)" xlink:href="#DejaVuSans-BoldOblique-74"/>
     <use transform="translate(105.463867 0.015625)" xlink:href="#DejaVuSans-Bold-5b"/>
     <use transform="translate(151.166992 0.015625)" xlink:href="#DejaVuSans-Bold-6d"/>
     <use transform="translate(256.323242 -16.390625)scale(0.7)" xlink:href="#DejaVuSans-BoldOblique-74"/>
     <use transform="translate(304.373047 -16.390625)scale(0.7)" xlink:href="#DejaVuSans-Bold-2b"/>
     <use transform="translate(377.613281 -16.390625)scale(0.7)" xlink:href="#DejaVuSans-Bold-31"/>
     <use transform="translate(429.053711 0.015625)" xlink:href="#DejaVuSans-Bold-2f"/>
     <use transform="translate(465.577148 0.015625)" xlink:href="#DejaVuSans-Bold-6d"/>
     <use transform="translate(570.733398 -16.390625)scale(0.7)" xlink:href="#DejaVuSans-BoldOblique-74"/>
     <use transform="translate(606.929688 0.015625)" xlink:href="#DejaVuSans-Bold-5d"/>
    </g>
   </g>
   <g id="legend_1">
    <g id="patch_7">
     <path d="M 479.341875 119.324687 
L 762.2 119.324687 
Q 766.6 119.324687 766.6 114.924688 
L 766.6 84.52 
Q 766.6 80.12 762.2 80.12 
L 479.341875 80.12 
Q 474.941875 80.12 474.941875 84.52 
L 474.941875 114.924688 
Q 474.941875 119.324687 479.341875 119.324687 
z
" style="fill:#ffffff;opacity:0.8;stroke:#cccccc;stroke-linejoin:miter;"/>
    </g>
    <g id="line2d_45">
     <path d="M 483.741875 97.936562 
L 527.741875 97.936562 
" style="fill:none;stroke:#1f77b4;stroke-dasharray:1.5,2.475;stroke-dashoffset:0;stroke-width:1.5;"/>
    </g>
    <g id="line2d_46"/>
    <g id="text_18">
     <!-- Individual Target -->
     <g transform="translate(545.341875 105.636562)scale(0.22 -0.22)">
      <defs>
       <path d="M 300 0 
L 300 378 
L 897 378 
L 897 4288 
L 300 4288 
L 300 4666 
L 2700 4666 
L 2700 4288 
L 2100 4288 
L 2100 378 
L 2700 378 
L 2700 0 
L 300 0 
z
" id="DejaVuSerif-Bold-49" transform="scale(0.015625)"/>
       <path d="M 219 0 
L 219 378 
L 691 378 
L 691 2944 
L 219 2944 
L 219 3322 
L 1797 3322 
L 1797 2853 
Q 1997 3150 2253 3281 
Q 2509 3413 2900 3413 
Q 3459 3413 3745 3083 
Q 4031 2753 4031 2113 
L 4031 378 
L 4506 378 
L 4506 0 
L 2522 0 
L 2522 378 
L 2925 378 
L 2925 2144 
Q 2925 2566 2817 2730 
Q 2709 2894 2444 2894 
Q 2109 2894 1953 2648 
Q 1797 2403 1797 1869 
L 1797 378 
L 2203 378 
L 2203 0 
L 219 0 
z
" id="DejaVuSerif-Bold-6e" transform="scale(0.015625)"/>
       <path d="M 2747 1497 
L 2747 1825 
Q 2747 2406 2597 2665 
Q 2447 2925 2119 2925 
Q 1775 2925 1636 2651 
Q 1497 2378 1497 1663 
Q 1497 947 1637 672 
Q 1778 397 2119 397 
Q 2447 397 2597 656 
Q 2747 916 2747 1497 
z
M 3853 378 
L 4325 378 
L 4325 0 
L 2747 0 
L 2747 422 
Q 2606 163 2367 36 
Q 2128 -91 1778 -91 
Q 1072 -91 667 378 
Q 263 847 263 1663 
Q 263 2481 667 2947 
Q 1072 3413 1778 3413 
Q 2128 3413 2367 3286 
Q 2606 3159 2747 2900 
L 2747 4488 
L 2272 4488 
L 2272 4863 
L 3853 4863 
L 3853 378 
z
" id="DejaVuSerif-Bold-64" transform="scale(0.015625)"/>
       <path d="M 588 4263 
Q 588 4516 763 4689 
Q 938 4863 1191 4863 
Q 1438 4863 1611 4689 
Q 1784 4516 1784 4263 
Q 1784 4016 1611 3842 
Q 1438 3669 1191 3669 
Q 938 3669 763 3841 
Q 588 4013 588 4263 
z
M 1797 378 
L 2272 378 
L 2272 0 
L 219 0 
L 219 378 
L 691 378 
L 691 2944 
L 219 2944 
L 219 3322 
L 1797 3322 
L 1797 378 
z
" id="DejaVuSerif-Bold-69" transform="scale(0.015625)"/>
       <path d="M 1428 0 
L 250 2944 
L -116 2944 
L -116 3322 
L 1791 3322 
L 1791 2944 
L 1388 2944 
L 2228 844 
L 3066 2944 
L 2631 2944 
L 2631 3322 
L 3878 3322 
L 3878 2944 
L 3494 2944 
L 2316 0 
L 1428 0 
z
" id="DejaVuSerif-Bold-76" transform="scale(0.015625)"/>
       <path d="M 3963 3322 
L 3963 378 
L 4434 378 
L 4434 0 
L 2853 0 
L 2853 469 
Q 2656 172 2400 40 
Q 2144 -91 1753 -91 
Q 1194 -91 908 239 
Q 622 569 622 1209 
L 622 2944 
L 147 2944 
L 147 3322 
L 1728 3322 
L 1728 1381 
Q 1728 763 1831 595 
Q 1934 428 2209 428 
Q 2544 428 2698 675 
Q 2853 922 2853 1459 
L 2853 2944 
L 2450 2944 
L 2450 3322 
L 3963 3322 
z
" id="DejaVuSerif-Bold-75" transform="scale(0.015625)"/>
       <path d="M 3525 2041 
L 3525 378 
L 4000 378 
L 4000 0 
L 2419 0 
L 2419 422 
Q 2200 159 1931 34 
Q 1663 -91 1319 -91 
Q 809 -91 536 182 
Q 263 456 263 966 
Q 263 1525 655 1803 
Q 1047 2081 1838 2081 
L 2419 2081 
L 2419 2278 
Q 2419 2681 2228 2873 
Q 2038 3066 1638 3066 
Q 1306 3066 1126 2930 
Q 947 2794 872 2484 
L 519 2484 
L 519 3200 
Q 816 3306 1134 3359 
Q 1453 3413 1806 3413 
Q 2697 3413 3111 3081 
Q 3525 2750 3525 2041 
z
M 2419 1044 
L 2419 1709 
L 2003 1709 
Q 1694 1709 1528 1540 
Q 1363 1372 1363 1056 
Q 1363 741 1483 584 
Q 1603 428 1850 428 
Q 2106 428 2262 597 
Q 2419 766 2419 1044 
z
" id="DejaVuSerif-Bold-61" transform="scale(0.015625)"/>
       <path d="M 1797 378 
L 2272 378 
L 2272 0 
L 219 0 
L 219 378 
L 691 378 
L 691 4488 
L 219 4488 
L 219 4863 
L 1797 4863 
L 1797 378 
z
" id="DejaVuSerif-Bold-6c" transform="scale(0.015625)"/>
       <path id="DejaVuSerif-Bold-20" transform="scale(0.015625)"/>
       <path d="M 1159 0 
L 1159 378 
L 1778 378 
L 1778 4238 
L 500 4238 
L 500 3500 
L 72 3500 
L 72 4666 
L 4697 4666 
L 4697 3500 
L 4275 3500 
L 4275 4238 
L 2988 4238 
L 2988 378 
L 3609 378 
L 3609 0 
L 1159 0 
z
" id="DejaVuSerif-Bold-54" transform="scale(0.015625)"/>
       <path d="M 3438 3359 
L 3438 2369 
L 3084 2369 
Q 3066 2634 2941 2764 
Q 2816 2894 2578 2894 
Q 2216 2894 2006 2575 
Q 1797 2256 1797 1691 
L 1797 378 
L 2400 378 
L 2400 0 
L 219 0 
L 219 378 
L 691 378 
L 691 2944 
L 184 2944 
L 184 3322 
L 1797 3322 
L 1797 2731 
Q 1959 3078 2226 3245 
Q 2494 3413 2881 3413 
Q 2978 3413 3117 3398 
Q 3256 3384 3438 3359 
z
" id="DejaVuSerif-Bold-72" transform="scale(0.015625)"/>
       <path d="M 3853 2944 
L 3853 44 
Q 3853 -656 3354 -1039 
Q 2856 -1422 1947 -1422 
Q 1616 -1422 1275 -1370 
Q 934 -1319 575 -1216 
L 575 -422 
L 928 -422 
Q 975 -750 1192 -909 
Q 1409 -1069 1813 -1069 
Q 2325 -1069 2536 -823 
Q 2747 -578 2747 44 
L 2747 422 
Q 2606 163 2367 36 
Q 2128 -91 1778 -91 
Q 1072 -91 667 378 
Q 263 847 263 1663 
Q 263 2481 667 2947 
Q 1072 3413 1778 3413 
Q 2128 3413 2367 3286 
Q 2606 3159 2747 2900 
L 2747 3322 
L 4325 3322 
L 4325 2944 
L 3853 2944 
z
M 2747 1825 
Q 2747 2406 2597 2665 
Q 2447 2925 2119 2925 
Q 1775 2925 1636 2651 
Q 1497 2378 1497 1663 
Q 1497 947 1637 672 
Q 1778 397 2119 397 
Q 2447 397 2597 656 
Q 2747 916 2747 1497 
L 2747 1825 
z
" id="DejaVuSerif-Bold-67" transform="scale(0.015625)"/>
       <path d="M 2566 1875 
Q 2566 2531 2444 2795 
Q 2322 3059 2028 3059 
Q 1744 3059 1620 2800 
Q 1497 2541 1497 1931 
L 1497 1875 
L 2566 1875 
z
M 3781 1503 
L 1497 1503 
L 1497 1478 
Q 1497 834 1690 548 
Q 1884 263 2316 263 
Q 2675 263 2897 453 
Q 3119 644 3181 1006 
L 3700 1006 
Q 3566 441 3166 175 
Q 2766 -91 2047 -91 
Q 1184 -91 723 364 
Q 263 819 263 1663 
Q 263 2488 734 2950 
Q 1206 3413 2047 3413 
Q 2872 3413 3312 2927 
Q 3753 2441 3781 1503 
z
" id="DejaVuSerif-Bold-65" transform="scale(0.015625)"/>
       <path d="M 634 2944 
L 153 2944 
L 153 3322 
L 634 3322 
L 634 4353 
L 1741 4353 
L 1741 3322 
L 2663 3322 
L 2663 2944 
L 1741 2944 
L 1741 909 
Q 1741 475 1809 369 
Q 1878 263 2059 263 
Q 2259 263 2356 397 
Q 2453 531 2459 813 
L 2925 813 
Q 2897 313 2651 111 
Q 2406 -91 1806 -91 
Q 1122 -91 878 123 
Q 634 338 634 909 
L 634 2944 
z
" id="DejaVuSerif-Bold-74" transform="scale(0.015625)"/>
      </defs>
      <use xlink:href="#DejaVuSerif-Bold-49"/>
      <use x="46.777344" xlink:href="#DejaVuSerif-Bold-6e"/>
      <use x="119.482422" xlink:href="#DejaVuSerif-Bold-64"/>
      <use x="189.404297" xlink:href="#DejaVuSerif-Bold-69"/>
      <use x="227.392578" xlink:href="#DejaVuSerif-Bold-76"/>
      <use x="285.498047" xlink:href="#DejaVuSerif-Bold-69"/>
      <use x="323.486328" xlink:href="#DejaVuSerif-Bold-64"/>
      <use x="393.408203" xlink:href="#DejaVuSerif-Bold-75"/>
      <use x="466.113281" xlink:href="#DejaVuSerif-Bold-61"/>
      <use x="530.908203" xlink:href="#DejaVuSerif-Bold-6c"/>
      <use x="568.896484" xlink:href="#DejaVuSerif-Bold-20"/>
      <use x="603.710938" xlink:href="#DejaVuSerif-Bold-54"/>
      <use x="668.5" xlink:href="#DejaVuSerif-Bold-61"/>
      <use x="733.294922" xlink:href="#DejaVuSerif-Bold-72"/>
      <use x="785.980469" xlink:href="#DejaVuSerif-Bold-67"/>
      <use x="855.902344" xlink:href="#DejaVuSerif-Bold-65"/>
      <use x="919.525391" xlink:href="#DejaVuSerif-Bold-74"/>
     </g>
    </g>
   </g>
  </g>
 </g>
 <defs>
  <clipPath id="p11bfa9b7c1">
   <rect height="434.88" width="669.6" x="108" y="69.12"/>
  </clipPath>
 </defs>
</svg>
