<?xml version="1.0" encoding="utf-8" standalone="no"?>
<!DOCTYPE svg PUBLIC "-//W3C//DTD SVG 1.1//EN"
  "http://www.w3.org/Graphics/SVG/1.1/DTD/svg11.dtd">
<svg height="576pt" version="1.1" viewBox="0 0 864 576" width="864pt" xmlns="http://www.w3.org/2000/svg" xmlns:xlink="http://www.w3.org/1999/xlink">
 <metadata>
  <rdf:RDF xmlns:cc="http://creativecommons.org/ns#" xmlns:dc="http://purl.org/dc/elements/1.1/" xmlns:rdf="http://www.w3.org/1999/02/22-rdf-syntax-ns#">
   <cc:Work>
    <dc:type rdf:resource="http://purl.org/dc/dcmitype/StillImage"/>
    <dc:date>2021-10-10T17:22:47.858618</dc:date>
    <dc:format>image/svg+xml</dc:format>
    <dc:creator>
     <cc:Agent>
      <dc:title>Matplotlib v3.4.2, https://matplotlib.org/</dc:title>
     </cc:Agent>
    </dc:creator>
   </cc:Work>
  </rdf:RDF>
 </metadata>
 <defs>
  <style type="text/css">*{stroke-linecap:butt;stroke-linejoin:round;}</style>
 </defs>
 <g id="figure_1">
  <g id="patch_1">
   <path d="M 0 576 
L 864 576 
L 864 0 
L 0 0 
z
" style="fill:none;"/>
  </g>
  <g id="axes_1">
   <g id="patch_2">
    <path d="M 108 504 
L 777.6 504 
L 777.6 69.12 
L 108 69.12 
z
" style="fill:#ffffff;"/>
   </g>
   <g id="patch_3">
    <path clip-path="url(#p0a91c183f2)" d="M 195.885 238.7232 
L 198.396 234.3744 
L 198.396 238.50576 
L 229.365 238.50576 
L 229.365 238.94064 
L 198.396 238.94064 
L 198.396 243.072 
z
" style="stroke:#000000;stroke-linejoin:miter;"/>
   </g>
   <g id="patch_4">
    <path clip-path="url(#p0a91c183f2)" d="M 308.88 477.9072 
L 306.330335 481.599068 
L 306.370043 477.472863 
L 292.13791 473.775569 
L 292.14209 473.341231 
L 306.374223 477.038525 
L 306.413931 472.91232 
z
" style="stroke:#000000;stroke-linejoin:miter;"/>
   </g>
   <g id="patch_5">
    <path clip-path="url(#p0a91c183f2)" d="M 505.575 101.736 
L 508.18238 99.370622 
L 508.064427 103.456275 
L 522.321208 114.567366 
L 522.308792 114.997434 
L 508.052011 103.886343 
L 507.934058 107.971995 
z
" style="stroke:#000000;stroke-linejoin:miter;"/>
   </g>
   <g id="matplotlib.axis_1">
    <g id="xtick_1">
     <g id="line2d_1">
      <defs>
       <path d="M 0 0 
L 0 3.5 
" id="m576b7c01d5" style="stroke:#000000;stroke-width:0.8;"/>
      </defs>
      <g>
       <use style="stroke:#000000;stroke-width:0.8;" x="108" xlink:href="#m576b7c01d5" y="504"/>
      </g>
     </g>
     <g id="text_1">
      <!-- 0 -->
      <g transform="translate(100.346406 527.716563)scale(0.22 -0.22)">
       <defs>
        <path d="M 2228 275 
Q 2603 275 2742 615 
Q 2881 956 2881 2328 
Q 2881 3691 2742 4037 
Q 2603 4384 2228 4384 
Q 1853 4384 1714 4043 
Q 1575 3703 1575 2328 
Q 1575 956 1714 615 
Q 1853 275 2228 275 
z
M 2228 -91 
Q 1294 -91 797 532 
Q 300 1156 300 2328 
Q 300 3500 797 4125 
Q 1294 4750 2228 4750 
Q 3159 4750 3656 4125 
Q 4153 3500 4153 2328 
Q 4153 1156 3656 532 
Q 3159 -91 2228 -91 
z
" id="DejaVuSerif-Bold-30" transform="scale(0.015625)"/>
       </defs>
       <use xlink:href="#DejaVuSerif-Bold-30"/>
      </g>
     </g>
    </g>
    <g id="xtick_2">
     <g id="line2d_2">
      <g>
       <use style="stroke:#000000;stroke-width:0.8;" x="191.7" xlink:href="#m576b7c01d5" y="504"/>
      </g>
     </g>
     <g id="text_2">
      <!-- 1 -->
      <g transform="translate(184.046406 527.716563)scale(0.22 -0.22)">
       <defs>
        <path d="M 878 0 
L 878 378 
L 1753 378 
L 1753 4153 
L 781 3578 
L 781 4044 
L 1953 4750 
L 2938 4750 
L 2938 378 
L 3816 378 
L 3816 0 
L 878 0 
z
" id="DejaVuSerif-Bold-31" transform="scale(0.015625)"/>
       </defs>
       <use xlink:href="#DejaVuSerif-Bold-31"/>
      </g>
     </g>
    </g>
    <g id="xtick_3">
     <g id="line2d_3">
      <g>
       <use style="stroke:#000000;stroke-width:0.8;" x="275.4" xlink:href="#m576b7c01d5" y="504"/>
      </g>
     </g>
     <g id="text_3">
      <!-- 2 -->
      <g transform="translate(267.746406 527.716563)scale(0.22 -0.22)">
       <defs>
        <path d="M 844 3513 
L 469 3513 
L 469 4519 
Q 850 4634 1223 4692 
Q 1597 4750 1978 4750 
Q 2869 4750 3367 4386 
Q 3866 4022 3866 3372 
Q 3866 2909 3591 2542 
Q 3316 2175 2541 1672 
L 1241 819 
L 3450 819 
L 3450 1369 
L 3878 1369 
L 3878 0 
L 428 0 
L 428 763 
L 1119 1241 
Q 2003 1850 2297 2278 
Q 2591 2706 2591 3278 
Q 2591 3819 2367 4101 
Q 2144 4384 1716 4384 
Q 1347 4384 1125 4161 
Q 903 3938 844 3513 
z
" id="DejaVuSerif-Bold-32" transform="scale(0.015625)"/>
       </defs>
       <use xlink:href="#DejaVuSerif-Bold-32"/>
      </g>
     </g>
    </g>
    <g id="xtick_4">
     <g id="line2d_4">
      <g>
       <use style="stroke:#000000;stroke-width:0.8;" x="359.1" xlink:href="#m576b7c01d5" y="504"/>
      </g>
     </g>
     <g id="text_4">
      <!-- 3 -->
      <g transform="translate(351.446406 527.716563)scale(0.22 -0.22)">
       <defs>
        <path d="M 550 4531 
Q 963 4641 1350 4695 
Q 1738 4750 2106 4750 
Q 2950 4750 3401 4448 
Q 3853 4147 3853 3584 
Q 3853 3163 3593 2900 
Q 3334 2638 2834 2547 
Q 3444 2450 3744 2131 
Q 4044 1813 4044 1259 
Q 4044 606 3526 257 
Q 3009 -91 2028 -91 
Q 1659 -91 1267 -28 
Q 875 34 447 159 
L 447 1184 
L 825 1184 
Q 859 741 1103 508 
Q 1347 275 1778 275 
Q 2253 275 2512 539 
Q 2772 803 2772 1288 
Q 2772 1794 2501 2069 
Q 2231 2344 1734 2344 
L 1528 2344 
L 1528 2719 
L 1691 2719 
Q 2150 2719 2381 2931 
Q 2613 3144 2613 3566 
Q 2613 3963 2395 4173 
Q 2178 4384 1772 4384 
Q 1403 4384 1187 4182 
Q 972 3981 928 3597 
L 550 3597 
L 550 4531 
z
" id="DejaVuSerif-Bold-33" transform="scale(0.015625)"/>
       </defs>
       <use xlink:href="#DejaVuSerif-Bold-33"/>
      </g>
     </g>
    </g>
    <g id="xtick_5">
     <g id="line2d_5">
      <g>
       <use style="stroke:#000000;stroke-width:0.8;" x="442.8" xlink:href="#m576b7c01d5" y="504"/>
      </g>
     </g>
     <g id="text_5">
      <!-- 4 -->
      <g transform="translate(435.146406 527.716563)scale(0.22 -0.22)">
       <defs>
        <path d="M 4084 0 
L 1516 0 
L 1516 378 
L 2209 378 
L 2209 1228 
L 263 1228 
L 263 1588 
L 2216 4750 
L 3391 4750 
L 3391 1631 
L 4191 1631 
L 4191 1228 
L 3391 1228 
L 3391 378 
L 4084 378 
L 4084 0 
z
M 2209 1631 
L 2209 3897 
L 819 1631 
L 2209 1631 
z
" id="DejaVuSerif-Bold-34" transform="scale(0.015625)"/>
       </defs>
       <use xlink:href="#DejaVuSerif-Bold-34"/>
      </g>
     </g>
    </g>
    <g id="xtick_6">
     <g id="line2d_6">
      <g>
       <use style="stroke:#000000;stroke-width:0.8;" x="526.5" xlink:href="#m576b7c01d5" y="504"/>
      </g>
     </g>
     <g id="text_6">
      <!-- 5 -->
      <g transform="translate(518.846406 527.716563)scale(0.22 -0.22)">
       <defs>
        <path d="M 3609 4666 
L 3609 3847 
L 1113 3847 
L 1113 2822 
Q 1319 2981 1572 3062 
Q 1825 3144 2106 3144 
Q 2969 3144 3469 2708 
Q 3969 2272 3969 1522 
Q 3969 759 3469 334 
Q 2969 -91 2069 -91 
Q 1688 -91 1311 -28 
Q 934 34 525 166 
L 525 1184 
L 900 1184 
Q 919 725 1139 500 
Q 1359 275 1791 275 
Q 2250 275 2472 583 
Q 2694 891 2694 1522 
Q 2694 2144 2476 2451 
Q 2259 2759 1819 2759 
Q 1581 2759 1395 2661 
Q 1209 2563 1050 2356 
L 738 2356 
L 738 4666 
L 3609 4666 
z
" id="DejaVuSerif-Bold-35" transform="scale(0.015625)"/>
       </defs>
       <use xlink:href="#DejaVuSerif-Bold-35"/>
      </g>
     </g>
    </g>
    <g id="xtick_7">
     <g id="line2d_7">
      <g>
       <use style="stroke:#000000;stroke-width:0.8;" x="610.2" xlink:href="#m576b7c01d5" y="504"/>
      </g>
     </g>
     <g id="text_7">
      <!-- 6 -->
      <g transform="translate(602.546406 527.716563)scale(0.22 -0.22)">
       <defs>
        <path d="M 1575 2766 
Q 1778 2928 2029 3009 
Q 2281 3091 2578 3091 
Q 3294 3091 3701 2672 
Q 4109 2253 4109 1522 
Q 4109 750 3650 329 
Q 3191 -91 2344 -91 
Q 1388 -91 895 486 
Q 403 1063 403 2181 
Q 403 3453 950 4101 
Q 1497 4750 2572 4750 
Q 2853 4750 3175 4703 
Q 3497 4656 3866 4563 
L 3866 3738 
L 3488 3738 
Q 3409 4056 3192 4220 
Q 2975 4384 2631 4384 
Q 2075 4384 1826 4003 
Q 1578 3622 1575 2766 
z
M 2272 275 
Q 2594 275 2731 548 
Q 2869 822 2869 1497 
Q 2869 2172 2731 2445 
Q 2594 2719 2272 2719 
Q 1950 2719 1814 2445 
Q 1678 2172 1678 1497 
Q 1678 822 1814 548 
Q 1950 275 2272 275 
z
" id="DejaVuSerif-Bold-36" transform="scale(0.015625)"/>
       </defs>
       <use xlink:href="#DejaVuSerif-Bold-36"/>
      </g>
     </g>
    </g>
    <g id="xtick_8">
     <g id="line2d_8">
      <g>
       <use style="stroke:#000000;stroke-width:0.8;" x="693.9" xlink:href="#m576b7c01d5" y="504"/>
      </g>
     </g>
     <g id="text_8">
      <!-- 7 -->
      <g transform="translate(686.246406 527.716563)scale(0.22 -0.22)">
       <defs>
        <path d="M 3922 3872 
L 1997 0 
L 1363 0 
L 3238 3781 
L 934 3781 
L 934 3150 
L 506 3150 
L 506 4666 
L 3922 4666 
L 3922 3872 
z
" id="DejaVuSerif-Bold-37" transform="scale(0.015625)"/>
       </defs>
       <use xlink:href="#DejaVuSerif-Bold-37"/>
      </g>
     </g>
    </g>
    <g id="xtick_9">
     <g id="line2d_9">
      <g>
       <use style="stroke:#000000;stroke-width:0.8;" x="777.6" xlink:href="#m576b7c01d5" y="504"/>
      </g>
     </g>
     <g id="text_9">
      <!-- 8 -->
      <g transform="translate(769.946406 527.716563)scale(0.22 -0.22)">
       <defs>
        <path d="M 2975 2484 
Q 3531 2394 3820 2075 
Q 4109 1756 4109 1241 
Q 4109 597 3623 253 
Q 3138 -91 2222 -91 
Q 1306 -91 818 253 
Q 331 597 331 1241 
Q 331 1756 622 2075 
Q 913 2394 1466 2484 
Q 975 2597 731 2861 
Q 488 3125 488 3531 
Q 488 4125 931 4437 
Q 1375 4750 2222 4750 
Q 3066 4750 3511 4437 
Q 3956 4125 3956 3531 
Q 3956 3125 3711 2861 
Q 3466 2597 2975 2484 
z
M 2747 3519 
Q 2747 4013 2628 4198 
Q 2509 4384 2222 4384 
Q 1931 4384 1814 4198 
Q 1697 4013 1697 3519 
Q 1697 3028 1814 2845 
Q 1931 2663 2222 2663 
Q 2513 2663 2630 2845 
Q 2747 3028 2747 3519 
z
M 2869 1294 
Q 2869 1866 2723 2081 
Q 2578 2297 2222 2297 
Q 1863 2297 1719 2081 
Q 1575 1866 1575 1294 
Q 1575 716 1720 495 
Q 1866 275 2222 275 
Q 2575 275 2722 495 
Q 2869 716 2869 1294 
z
" id="DejaVuSerif-Bold-38" transform="scale(0.015625)"/>
       </defs>
       <use xlink:href="#DejaVuSerif-Bold-38"/>
      </g>
     </g>
    </g>
   </g>
   <g id="matplotlib.axis_2">
    <g id="ytick_1">
     <g id="line2d_10">
      <defs>
       <path d="M 0 0 
L -3.5 0 
" id="m27cdeca58f" style="stroke:#000000;stroke-width:0.8;"/>
      </defs>
      <g>
       <use style="stroke:#000000;stroke-width:0.8;" x="108" xlink:href="#m27cdeca58f" y="504"/>
      </g>
     </g>
     <g id="text_10">
      <!-- 0.0 -->
      <g transform="translate(62.726875 512.358281)scale(0.22 -0.22)">
       <defs>
        <path d="M 519 506 
Q 519 750 694 925 
Q 869 1100 1113 1100 
Q 1359 1100 1534 925 
Q 1709 750 1709 506 
Q 1709 259 1534 84 
Q 1359 -91 1113 -91 
Q 869 -91 694 84 
Q 519 259 519 506 
z
" id="DejaVuSerif-Bold-2e" transform="scale(0.015625)"/>
       </defs>
       <use xlink:href="#DejaVuSerif-Bold-30"/>
       <use x="69.580078" xlink:href="#DejaVuSerif-Bold-2e"/>
       <use x="104.394531" xlink:href="#DejaVuSerif-Bold-30"/>
      </g>
     </g>
    </g>
    <g id="ytick_2">
     <g id="line2d_11">
      <g>
       <use style="stroke:#000000;stroke-width:0.8;" x="108" xlink:href="#m27cdeca58f" y="417.024"/>
      </g>
     </g>
     <g id="text_11">
      <!-- 0.2 -->
      <g transform="translate(62.726875 425.382281)scale(0.22 -0.22)">
       <use xlink:href="#DejaVuSerif-Bold-30"/>
       <use x="69.580078" xlink:href="#DejaVuSerif-Bold-2e"/>
       <use x="104.394531" xlink:href="#DejaVuSerif-Bold-32"/>
      </g>
     </g>
    </g>
    <g id="ytick_3">
     <g id="line2d_12">
      <g>
       <use style="stroke:#000000;stroke-width:0.8;" x="108" xlink:href="#m27cdeca58f" y="330.048"/>
      </g>
     </g>
     <g id="text_12">
      <!-- 0.4 -->
      <g transform="translate(62.726875 338.406281)scale(0.22 -0.22)">
       <use xlink:href="#DejaVuSerif-Bold-30"/>
       <use x="69.580078" xlink:href="#DejaVuSerif-Bold-2e"/>
       <use x="104.394531" xlink:href="#DejaVuSerif-Bold-34"/>
      </g>
     </g>
    </g>
    <g id="ytick_4">
     <g id="line2d_13">
      <g>
       <use style="stroke:#000000;stroke-width:0.8;" x="108" xlink:href="#m27cdeca58f" y="243.072"/>
      </g>
     </g>
     <g id="text_13">
      <!-- 0.6 -->
      <g transform="translate(62.726875 251.430281)scale(0.22 -0.22)">
       <use xlink:href="#DejaVuSerif-Bold-30"/>
       <use x="69.580078" xlink:href="#DejaVuSerif-Bold-2e"/>
       <use x="104.394531" xlink:href="#DejaVuSerif-Bold-36"/>
      </g>
     </g>
    </g>
    <g id="ytick_5">
     <g id="line2d_14">
      <g>
       <use style="stroke:#000000;stroke-width:0.8;" x="108" xlink:href="#m27cdeca58f" y="156.096"/>
      </g>
     </g>
     <g id="text_14">
      <!-- 0.8 -->
      <g transform="translate(62.726875 164.454281)scale(0.22 -0.22)">
       <use xlink:href="#DejaVuSerif-Bold-30"/>
       <use x="69.580078" xlink:href="#DejaVuSerif-Bold-2e"/>
       <use x="104.394531" xlink:href="#DejaVuSerif-Bold-38"/>
      </g>
     </g>
    </g>
    <g id="ytick_6">
     <g id="line2d_15">
      <g>
       <use style="stroke:#000000;stroke-width:0.8;" x="108" xlink:href="#m27cdeca58f" y="69.12"/>
      </g>
     </g>
     <g id="text_15">
      <!-- 1.0 -->
      <g transform="translate(62.726875 77.478281)scale(0.22 -0.22)">
       <use xlink:href="#DejaVuSerif-Bold-31"/>
       <use x="69.580078" xlink:href="#DejaVuSerif-Bold-2e"/>
       <use x="104.394531" xlink:href="#DejaVuSerif-Bold-30"/>
      </g>
     </g>
    </g>
   </g>
   <g id="line2d_16">
    <path clip-path="url(#p0a91c183f2)" d="M 108.0837 98.668023 
L 112.104819 98.778199 
L 114.115378 98.939406 
L 115.455751 99.046636 
L 116.125938 99.171734 
L 116.796124 99.171734 
L 117.466311 99.314796 
L 118.136497 99.314796 
L 119.47687 99.655236 
L 120.147057 99.655236 
L 120.817243 99.852835 
L 121.48743 99.852835 
L 122.827803 100.303529 
L 123.497989 100.303529 
L 124.168176 100.556933 
L 124.838362 100.556933 
L 126.178735 101.120556 
L 126.848922 101.120556 
L 128.189295 101.760135 
L 128.859481 101.760135 
L 129.529668 102.108732 
L 130.199854 102.108732 
L 131.540227 102.864592 
L 132.210414 102.864592 
L 133.550786 103.699679 
L 134.220973 103.699679 
L 135.561346 104.615637 
L 136.231532 104.615637 
L 137.571905 105.613328 
L 138.242092 105.613328 
L 139.582465 106.694219 
L 140.252651 106.694219 
L 142.263211 108.473137 
L 142.933397 108.473137 
L 144.27377 109.765669 
L 144.943957 109.765669 
L 147.624703 112.61103 
L 148.294889 112.61103 
L 150.975635 115.809588 
L 151.645822 115.809588 
L 154.326568 119.363647 
L 157.007314 123.274405 
L 157.6775 124.308364 
L 158.347686 124.308364 
L 161.028432 128.66082 
L 161.698619 130.967548 
L 165.049551 137.101748 
L 166.389924 139.700152 
L 167.060111 142.375184 
L 169.07067 146.531697 
L 169.740857 149.392106 
L 171.08123 152.32208 
L 171.751416 155.316545 
L 172.421603 156.838141 
L 173.091789 159.926696 
L 173.761976 161.495772 
L 174.432162 164.664417 
L 175.102349 166.271974 
L 175.772535 169.516182 
L 176.442722 171.159922 
L 177.783095 177.823972 
L 178.453281 179.512129 
L 181.134027 193.278857 
L 181.804214 195.026195 
L 183.814773 205.541567 
L 184.484959 210.810962 
L 187.835892 228.246468 
L 188.506078 233.397824 
L 189.176265 236.794972 
L 189.846451 241.86425 
L 191.186824 248.491341 
L 191.857011 253.379594 
L 192.527197 256.590798 
L 193.86757 265.990019 
L 194.537757 269.056022 
L 195.87813 277.946091 
L 196.548316 280.835926 
L 199.229062 297.172142 
L 199.899249 299.745824 
L 202.579995 314.213965 
L 205.260741 327.192654 
L 207.2713 336.025026 
L 209.281859 344.15477 
L 209.952046 345.863616 
L 212.632792 355.511066 
L 215.313538 364.200576 
L 217.994284 372.019231 
L 218.66447 373.240089 
L 221.345216 380.202379 
L 222.015403 381.84511 
L 222.685589 382.908073 
L 224.696149 387.520347 
L 225.366335 388.508222 
L 226.706708 391.370113 
L 227.376895 392.298265 
L 228.717268 394.998796 
L 229.387454 395.869624 
L 230.727827 398.425441 
L 231.398014 399.243577 
L 232.0682 400.469546 
L 232.738386 401.264479 
L 233.408573 402.444715 
L 234.078759 403.214248 
L 234.748946 404.351478 
L 235.419132 405.096194 
L 236.089319 406.203956 
L 236.759505 406.926391 
L 237.429692 407.993996 
L 238.770065 409.383652 
L 239.440251 410.404221 
L 240.780624 411.742303 
L 241.450811 412.724022 
L 242.791184 414.003164 
L 243.46137 414.945285 
L 245.47193 416.77373 
L 246.142116 417.669918 
L 249.493049 420.541063 
L 250.163235 421.372416 
L 254.854541 425.097794 
L 260.216032 429.057844 
L 262.226592 430.472805 
L 262.896778 430.704495 
L 266.247711 432.974436 
L 266.917897 433.197433 
L 268.928457 434.509639 
L 269.598643 434.725141 
L 271.609203 436.00559 
L 272.279389 436.215637 
L 273.619762 437.048913 
L 274.289949 437.256912 
L 275.630322 438.073304 
L 276.300508 438.275772 
L 276.970695 438.678632 
L 277.640881 438.880367 
L 278.981254 439.67339 
L 279.651441 439.869687 
L 280.321627 440.259621 
L 280.991814 440.45446 
L 281.662 440.842719 
L 282.332186 441.034333 
L 283.672559 441.79439 
L 284.342746 441.982079 
L 285.012932 442.355632 
L 285.683119 442.54173 
L 286.353305 442.913111 
L 287.023492 443.096811 
L 287.693678 443.460546 
L 289.034051 443.822326 
L 289.704238 444.181903 
L 290.374424 444.360731 
L 291.044611 444.714558 
L 291.714797 444.890607 
L 292.384984 445.239655 
L 293.725357 445.586368 
L 294.395543 445.929755 
L 295.735916 446.270779 
L 296.406103 446.607438 
L 297.076289 446.77525 
L 297.746476 447.107966 
L 299.086849 447.438747 
L 299.757035 447.765086 
L 301.767595 448.24876 
L 302.437781 448.567975 
L 303.778154 448.884219 
L 304.448341 449.196499 
L 306.4589 449.660545 
L 307.129086 449.966037 
L 309.809832 450.568345 
L 310.480019 450.864916 
L 313.160765 451.44976 
L 313.830951 451.737593 
L 317.181884 452.446474 
L 317.85207 452.725602 
L 336.617292 456.480467 
L 344.65953 457.892229 
L 345.329716 457.892229 
L 351.361395 458.902617 
L 352.701768 459.012795 
L 356.722886 459.662163 
L 358.063259 459.768949 
L 362.754565 460.399144 
L 366.775684 460.912372 
L 370.796803 461.415851 
L 372.137176 461.515267 
L 376.828481 462.103315 
L 378.168854 462.2001 
L 381.519786 462.58272 
L 382.860159 462.677762 
L 386.211092 463.052816 
L 387.551465 463.145779 
L 390.902397 463.513952 
L 392.24277 463.605458 
L 394.923516 463.877155 
L 396.263889 463.966716 
L 398.944635 464.233568 
L 400.285008 464.322378 
L 402.965754 464.585963 
L 404.306127 464.673003 
L 406.316686 464.846375 
L 407.657059 464.932715 
L 410.337805 465.188948 
L 412.348365 465.273791 
L 415.029111 465.526908 
L 416.369484 465.611201 
L 418.380043 465.777698 
L 419.720416 465.860486 
L 421.730976 466.024982 
L 423.741535 466.106679 
L 426.422281 466.351094 
L 428.432841 466.431615 
L 431.113586 466.672128 
L 433.124146 466.751667 
L 435.134705 466.910361 
L 436.475078 466.989129 
L 438.485638 467.145724 
L 440.496197 467.223543 
L 442.506757 467.378414 
L 444.517316 467.45567 
L 446.527876 467.609958 
L 448.538435 467.686233 
L 450.548995 467.838234 
L 452.559554 467.913597 
L 454.570114 468.063987 
L 456.580673 468.13897 
L 458.591232 468.287771 
L 460.601792 468.361679 
L 462.612351 468.509402 
L 464.622911 468.582786 
L 466.63347 468.728643 
L 469.314216 468.801242 
L 471.324776 468.945434 
L 473.335335 469.017388 
L 475.345895 469.160642 
L 478.026641 469.231905 
L 480.0372 469.373295 
L 482.717946 469.443701 
L 484.728505 469.584263 
L 487.409251 469.654029 
L 489.419811 469.792969 
L 492.100557 469.862306 
L 494.111116 469.999672 
L 496.791862 470.068188 
L 498.802422 470.20453 
L 501.483168 470.272406 
L 502.823541 470.340018 
L 504.8341 470.407333 
L 506.174473 470.474424 
L 508.185032 470.541394 
L 509.525405 470.608012 
L 511.535965 470.674546 
L 512.876338 470.740669 
L 515.557084 470.806763 
L 517.567643 470.938381 
L 520.918576 471.004025 
L 522.929135 471.134568 
L 526.280068 471.199581 
L 528.290627 471.328523 
L 531.641559 471.392642 
L 532.981932 471.456923 
L 535.662678 471.520871 
L 537.003051 471.584359 
L 539.013611 471.647735 
L 540.353984 471.710866 
L 543.03473 471.773854 
L 544.375103 471.836921 
L 547.055849 471.899873 
L 548.396222 471.962415 
L 551.076968 472.024892 
L 552.417341 472.087106 
L 555.098086 472.148992 
L 556.438459 472.210773 
L 559.119205 472.272107 
L 560.459578 472.333305 
L 563.140324 472.394356 
L 564.480697 472.45526 
L 567.83163 472.516081 
L 569.172003 472.577035 
L 571.852749 472.637632 
L 573.193122 472.698101 
L 576.544054 472.758088 
L 577.884427 472.817975 
L 580.565173 472.877573 
L 581.905546 472.93704 
L 585.256478 472.996312 
L 586.596851 473.055427 
L 589.947784 473.114589 
L 591.288157 473.173547 
L 593.968903 473.232328 
L 595.309276 473.290819 
L 598.660208 473.349099 
L 600.000581 473.407121 
L 603.351514 473.465063 
L 604.691886 473.522768 
L 608.713005 473.58037 
L 610.053378 473.637776 
L 613.404311 473.695377 
L 614.744684 473.752555 
L 618.095616 473.809453 
L 619.435989 473.866171 
L 623.457108 473.9227 
L 624.797481 473.979233 
L 628.8186 474.035533 
L 630.158973 474.091565 
L 633.509905 474.147616 
L 634.850278 474.203421 
L 641.552143 474.31431 
L 643.562703 474.369664 
L 649.594381 474.479817 
L 651.604941 474.534634 
L 658.306805 474.643747 
L 660.317365 474.698106 
L 666.349043 474.806286 
L 668.359603 474.860155 
L 675.061468 474.967446 
L 677.072027 475.020965 
L 684.444078 475.127208 
L 686.454638 475.18009 
L 693.156503 475.285596 
L 695.167062 475.337978 
L 702.539114 475.442648 
L 704.549673 475.494596 
L 712.591911 475.5981 
L 714.60247 475.649662 
L 721.974522 475.752176 
L 723.985081 475.803329 
L 732.027319 475.905103 
L 734.037878 475.95569 
L 742.750303 476.057044 
L 744.760862 476.107394 
L 753.473286 476.207472 
L 755.483846 476.257292 
L 764.19627 476.35627 
L 766.20683 476.405567 
L 774.919254 476.50378 
L 776.929814 476.552695 
L 777.6 476.552695 
L 777.6 476.552695 
" style="fill:none;stroke:#000000;stroke-linecap:square;stroke-width:1.5;"/>
   </g>
   <g id="line2d_17">
    <path clip-path="url(#p0a91c183f2)" d="M 108 98.817756 
L 777.6 98.817756 
" style="fill:none;stroke:#000000;stroke-linecap:square;stroke-width:1.5;"/>
   </g>
   <g id="line2d_18">
    <path clip-path="url(#p0a91c183f2)" d="M 108 489.109693 
L 777.6 489.109693 
" style="fill:none;stroke:#000000;stroke-linecap:square;stroke-width:1.5;"/>
   </g>
   <g id="patch_6">
    <path d="M 108 504 
L 108 69.12 
" style="fill:none;stroke:#000000;stroke-linecap:square;stroke-linejoin:miter;stroke-width:0.8;"/>
   </g>
   <g id="patch_7">
    <path d="M 777.6 504 
L 777.6 69.12 
" style="fill:none;stroke:#000000;stroke-linecap:square;stroke-linejoin:miter;stroke-width:0.8;"/>
   </g>
   <g id="patch_8">
    <path d="M 108 504 
L 777.6 504 
" style="fill:none;stroke:#000000;stroke-linecap:square;stroke-linejoin:miter;stroke-width:0.8;"/>
   </g>
   <g id="patch_9">
    <path d="M 108 69.12 
L 777.6 69.12 
" style="fill:none;stroke:#000000;stroke-linecap:square;stroke-linejoin:miter;stroke-width:0.8;"/>
   </g>
   <g id="text_16">
    <!-- $\kappa(m) \equiv c^{\prime}(m)$ -->
    <g transform="translate(233.55 243.072)scale(0.26 -0.26)">
     <defs>
      <path d="M 1578 1344 
L 1316 0 
L 197 0 
L 878 3500 
L 1997 3500 
L 1800 2497 
L 3103 3500 
L 4347 3500 
L 2763 2266 
L 3850 0 
L 2522 0 
L 1797 1513 
L 1578 1344 
z
" id="DejaVuSans-BoldOblique-3ba" transform="scale(0.015625)"/>
      <path d="M 2413 -844 
L 1484 -844 
Q 1006 -72 778 623 
Q 550 1319 550 2003 
Q 550 2688 779 3389 
Q 1009 4091 1484 4856 
L 2413 4856 
Q 2013 4116 1813 3408 
Q 1613 2700 1613 2009 
Q 1613 1319 1811 609 
Q 2009 -100 2413 -844 
z
" id="DejaVuSans-Bold-28" transform="scale(0.015625)"/>
      <path d="M 4013 2919 
Q 4272 3241 4601 3412 
Q 4931 3584 5288 3584 
Q 5756 3584 6026 3326 
Q 6297 3069 6297 2619 
Q 6297 2525 6283 2404 
Q 6269 2284 6241 2131 
L 5825 0 
L 4697 0 
L 5050 1825 
L 5059 1872 
Q 5141 2259 5141 2369 
Q 5141 2541 5042 2641 
Q 4944 2741 4775 2741 
Q 4453 2741 4229 2477 
Q 4006 2213 3909 1722 
L 3572 0 
L 2444 0 
L 2803 1825 
Q 2850 2059 2869 2179 
Q 2888 2300 2888 2369 
Q 2888 2544 2791 2642 
Q 2694 2741 2522 2741 
Q 2213 2741 1980 2467 
Q 1747 2194 1656 1722 
L 1319 0 
L 197 0 
L 878 3500 
L 2003 3500 
L 1900 2988 
Q 2163 3284 2459 3434 
Q 2756 3584 3078 3584 
Q 3441 3584 3700 3398 
Q 3959 3213 4013 2919 
z
" id="DejaVuSans-BoldOblique-6d" transform="scale(0.015625)"/>
      <path d="M 513 -844 
Q 913 -100 1113 609 
Q 1313 1319 1313 2009 
Q 1313 2700 1113 3408 
Q 913 4116 513 4856 
L 1441 4856 
Q 1916 4091 2145 3389 
Q 2375 2688 2375 2003 
Q 2375 1319 2147 623 
Q 1919 -72 1441 -844 
L 513 -844 
z
" id="DejaVuSans-Bold-29" transform="scale(0.015625)"/>
      <path d="M 678 2369 
L 4684 2369 
L 4684 1638 
L 678 1638 
L 678 2369 
z
M 678 3766 
L 4684 3766 
L 4684 3031 
L 678 3031 
L 678 3766 
z
M 678 975 
L 4684 975 
L 4684 241 
L 678 241 
L 678 975 
z
" id="DejaVuSans-Bold-2261" transform="scale(0.015625)"/>
      <path d="M 3719 3391 
L 3541 2478 
Q 3316 2628 3097 2706 
Q 2878 2784 2669 2784 
Q 2122 2784 1775 2417 
Q 1428 2050 1428 1478 
Q 1428 1113 1643 911 
Q 1859 709 2253 709 
Q 2516 709 2769 787 
Q 3022 866 3250 1019 
L 3078 103 
Q 2800 6 2519 -42 
Q 2238 -91 1953 -91 
Q 1128 -91 683 279 
Q 238 650 238 1331 
Q 238 1759 402 2162 
Q 566 2566 872 2888 
Q 1213 3241 1653 3412 
Q 2094 3584 2669 3584 
Q 2934 3584 3196 3536 
Q 3459 3488 3719 3391 
z
" id="DejaVuSans-BoldOblique-63" transform="scale(0.015625)"/>
      <path d="M 225 347 
Q 184 359 184 409 
L 966 3316 
Q 1003 3434 1093 3506 
Q 1184 3578 1300 3578 
Q 1450 3578 1564 3479 
Q 1678 3381 1678 3231 
Q 1678 3166 1644 3084 
L 488 319 
Q 466 275 428 275 
Q 394 275 320 306 
Q 247 338 225 347 
z
" id="Cmsy10-30" transform="scale(0.015625)"/>
     </defs>
     <use transform="translate(0 0.584375)" xlink:href="#DejaVuSans-BoldOblique-3ba"/>
     <use transform="translate(71.044922 0.584375)" xlink:href="#DejaVuSans-Bold-28"/>
     <use transform="translate(116.748047 0.584375)" xlink:href="#DejaVuSans-BoldOblique-6d"/>
     <use transform="translate(220.947266 0.584375)" xlink:href="#DejaVuSans-Bold-29"/>
     <use transform="translate(287.490234 0.584375)" xlink:href="#DejaVuSans-Bold-2261"/>
     <use transform="translate(392.119141 0.584375)" xlink:href="#DejaVuSans-BoldOblique-63"/>
     <use transform="translate(456.04638 38.865625)scale(0.7)" xlink:href="#Cmsy10-30"/>
     <use transform="translate(478.023919 0.584375)" xlink:href="#DejaVuSans-Bold-28"/>
     <use transform="translate(523.727044 0.584375)" xlink:href="#DejaVuSans-BoldOblique-6d"/>
     <use transform="translate(627.926263 0.584375)" xlink:href="#DejaVuSans-Bold-29"/>
    </g>
   </g>
   <g id="text_17">
    <!-- $(1-\wp^{1/\rho}$Þ${R})\equiv ar{\kappa}$ -->
    <g transform="translate(526.5 125.6544)scale(0.26 -0.26)">
     <defs>
      <path d="M 750 831 
L 1813 831 
L 1813 3847 
L 722 3622 
L 722 4441 
L 1806 4666 
L 2950 4666 
L 2950 831 
L 4013 831 
L 4013 0 
L 750 0 
L 750 831 
z
" id="DejaVuSans-Bold-31" transform="scale(0.015625)"/>
      <path d="M 678 2375 
L 4684 2375 
L 4684 1638 
L 678 1638 
L 678 2375 
z
" id="DejaVuSans-Bold-2212" transform="scale(0.015625)"/>
      <path d="M 1828 2953 
Q 1466 2547 1466 2019 
Q 1466 1753 1528 1538 
Q 1684 1734 2256 2222 
Q 2947 2813 3353 2813 
Q 3769 2813 3981 2575 
Q 4209 2325 4209 1791 
Q 4209 1109 3722 438 
Q 3341 -84 2800 -88 
Q 2488 -88 2247 103 
Q 2303 238 2363 425 
Q 2481 313 2794 313 
Q 3134 313 3400 706 
Q 3594 994 3594 1547 
Q 3594 1894 3488 2097 
Q 3397 2269 3219 2269 
Q 2688 2269 1694 1169 
Q 2072 341 2072 -138 
Q 2072 -628 1856 -972 
Q 1578 -1416 1122 -1416 
Q 722 -1416 541 -1225 
Q 344 -1019 344 -600 
Q 344 234 1041 1022 
Q 897 1516 897 1913 
Q 897 2656 1622 3169 
L 1828 2953 
z
M 1213 584 
Q 872 59 872 -266 
Q 872 -572 953 -700 
Q 1078 -888 1203 -888 
Q 1372 -888 1450 -763 
Q 1534 -625 1534 -372 
Q 1534 -166 1213 584 
z
" id="DejaVuSans-Bold-2118" transform="scale(0.015625)"/>
      <path d="M 1644 4666 
L 2338 4666 
L 691 -594 
L 0 -594 
L 1644 4666 
z
" id="DejaVuSans-Bold-2f" transform="scale(0.015625)"/>
      <path d="M 3741 425 
Q 3225 -91 2547 -91 
Q 1869 -91 1534 506 
L 1178 -1331 
L 59 -1331 
L 647 1688 
Q 816 2566 1344 2991 
Q 1869 3413 2275 3503 
Q 2681 3594 2928 3594 
Q 3178 3594 3294 3584 
Q 3894 3538 4256 3069 
Q 4472 2781 4472 2300 
Q 4472 2050 4413 1747 
Q 4256 938 3741 425 
z
M 3297 2119 
Q 3297 2772 2719 2772 
Q 2359 2772 2116 2506 
Q 1872 2244 1775 1747 
Q 1738 1544 1738 1344 
Q 1738 1144 1819 988 
Q 1963 722 2322 722 
Q 2681 722 2919 984 
Q 3159 1247 3256 1747 
Q 3297 1953 3297 2119 
z
" id="DejaVuSans-BoldOblique-3c1" transform="scale(0.015625)"/>
      <path d="M 300 0 
L 300 378 
L 897 378 
L 897 4288 
L 300 4288 
L 300 4666 
L 2847 4666 
L 2847 4288 
L 2100 4288 
L 2100 3756 
L 2956 3756 
Q 3734 3756 4193 3386 
Q 4653 3016 4653 2394 
Q 4653 1772 4192 1398 
Q 3731 1025 2956 1025 
L 2100 1025 
L 2100 378 
L 2853 378 
L 2853 0 
L 300 0 
z
M 2100 1403 
L 2450 1403 
Q 2856 1403 3098 1672 
Q 3341 1941 3341 2394 
Q 3341 2844 3100 3111 
Q 2859 3378 2450 3378 
L 2100 3378 
L 2100 1403 
z
" id="DejaVuSerif-Bold-de" transform="scale(0.015625)"/>
      <path d="M 2350 2597 
Q 2759 2597 2970 2787 
Q 3181 2978 3181 3347 
Q 3181 3578 3036 3686 
Q 2891 3794 2578 3794 
L 2081 3794 
L 1844 2597 
L 2350 2597 
z
M 1684 1766 
L 1338 0 
L 134 0 
L 1044 4666 
L 2822 4666 
Q 3591 4666 3987 4378 
Q 4384 4091 4384 3531 
Q 4384 2966 4071 2600 
Q 3759 2234 3225 2181 
Q 3469 2131 3631 1932 
Q 3794 1734 3916 1325 
L 4313 0 
L 3116 0 
L 2766 1159 
Q 2659 1506 2507 1636 
Q 2356 1766 2069 1766 
L 1684 1766 
z
" id="DejaVuSans-BoldOblique-52" transform="scale(0.015625)"/>
     </defs>
     <use transform="translate(0 0.684375)" xlink:href="#DejaVuSans-Bold-28"/>
     <use transform="translate(45.703125 0.684375)" xlink:href="#DejaVuSans-Bold-31"/>
     <use transform="translate(136.123047 0.684375)" xlink:href="#DejaVuSans-Bold-2212"/>
     <use transform="translate(240.751953 0.684375)" xlink:href="#DejaVuSans-Bold-2118"/>
     <use transform="translate(311.435547 38.965625)scale(0.7)" xlink:href="#DejaVuSans-Bold-31"/>
     <use transform="translate(360.141602 38.965625)scale(0.7)" xlink:href="#DejaVuSans-Bold-2f"/>
     <use transform="translate(385.708008 38.965625)scale(0.7)" xlink:href="#DejaVuSans-BoldOblique-3c1"/>
     <use transform="translate(438.549805 0.684375)" xlink:href="#DejaVuSerif-Bold-de"/>
     <use transform="translate(514.233398 0.684375)" xlink:href="#DejaVuSans-BoldOblique-52"/>
     <use transform="translate(591.235352 0.684375)" xlink:href="#DejaVuSans-Bold-29"/>
     <use transform="translate(657.77832 0.684375)" xlink:href="#DejaVuSans-Bold-2261"/>
    </g>
   </g>
   <g id="text_18">
    <!-- κ̲$\equiv(1-$Þ$_{R})$ -->
    <g transform="translate(149.85 473.5584)scale(0.26 -0.26)">
     <defs>
      <path d="M 2216 0 
L 219 0 
L 219 378 
L 691 378 
L 691 2947 
L 219 2947 
L 219 3322 
L 2216 3322 
L 2216 2947 
L 1797 2947 
L 1797 1741 
L 3138 2944 
L 2741 2944 
L 2741 3322 
L 4256 3322 
L 4256 2944 
L 3641 2944 
L 2784 2175 
L 4184 378 
L 4544 378 
L 4544 0 
L 2638 0 
L 2638 378 
L 3028 378 
L 2106 1563 
L 1797 1288 
L 1797 378 
L 2216 378 
L 2216 0 
z
" id="DejaVuSerif-Bold-3ba" transform="scale(0.015625)"/>
      <path d="M 0 -916 
L 0 -1509 
L -3200 -1509 
L -3200 -916 
L 0 -916 
z
" id="DejaVuSerif-Bold-332" transform="scale(0.015625)"/>
     </defs>
     <use transform="translate(0 0.125)" xlink:href="#DejaVuSerif-Bold-3ba"/>
     <use transform="translate(74.951172 0.125)" xlink:href="#DejaVuSerif-Bold-332"/>
     <use transform="translate(95.791016 0.125)" xlink:href="#DejaVuSans-Bold-2261"/>
     <use transform="translate(200.419922 0.125)" xlink:href="#DejaVuSans-Bold-28"/>
     <use transform="translate(246.123047 0.125)" xlink:href="#DejaVuSans-Bold-31"/>
     <use transform="translate(336.542969 0.125)" xlink:href="#DejaVuSans-Bold-2212"/>
     <use transform="translate(441.171875 0.125)" xlink:href="#DejaVuSerif-Bold-de"/>
     <use transform="translate(517.8125 -16.28125)scale(0.7)" xlink:href="#DejaVuSans-BoldOblique-52"/>
     <use transform="translate(574.448242 0.125)" xlink:href="#DejaVuSans-Bold-29"/>
    </g>
   </g>
   <g id="text_19">
    <!-- $m$ -->
    <g transform="translate(781.785 504)scale(0.26 -0.26)">
     <use xlink:href="#DejaVuSans-BoldOblique-6d"/>
    </g>
   </g>
  </g>
 </g>
 <defs>
  <clipPath id="p0a91c183f2">
   <rect height="434.88" width="669.6" x="108" y="69.12"/>
  </clipPath>
 </defs>
</svg>
